<?xml version="1.0" encoding="UTF-8"?>
<svg width="960px" height="540px" viewBox="0 0 960 540" version="1.1" xmlns="http://www.w3.org/2000/svg" xmlns:xlink="http://www.w3.org/1999/xlink">
    <!-- Generator: Sketch 60.1 (88133) - https://sketch.com -->
    <title>Artboard 4</title>
    <desc>Created with Sketch.</desc>
    <g id="Artboard-4" stroke="none" stroke-width="1" fill="none" fill-rule="evenodd">
        <polygon id="Fill-50" fill="#FFFFFF" points="0 0 959.76 0 959.76 539.999988 0 539.999988"></polygon>
        <g id="Group-55">
            <polygon id="Fill-52" fill="#FFFFFF" points="0 0 960 0 960 539.999986 0 539.999986"></polygon>
            <polygon id="Fill-53" fill="#F7AC6F" points="960.6666 522.19634 960.6666 491.52679 840.1485 525.65207 840.1485 539.043005"></polygon>
            <path d="M813.302,540.714537 L960.6667,498.82411 C960.5703,513.25815 960.4739,527.69204 960.3776,542.126077 L813.302,540.714537 Z" id="Fill-54" fill="#1A3B47"></path>
        </g>
        <text id="An" font-family="ArialMT, Arial" font-size="9.34118272" font-weight="normal" letter-spacing="-0.0304" fill="#1A3B47">
            <tspan x="706.34205" y="524.36854">An</tspan>
        </text>
        <text id="Indra" font-family="ArialMT, Arial" font-size="9.34118272" font-weight="normal" letter-spacing="-0.034" fill="#1A3B47">
            <tspan x="719.617345" y="524.36854">I</tspan>
            <tspan x="722.178625" y="524.36854" letter-spacing="1.03030065">n</tspan>
            <tspan x="728.404046" y="524.36854" letter-spacing="0.572838089">d</tspan>
            <tspan x="734.172005" y="524.36854" letter-spacing="0.806237354">r</tspan>
            <tspan x="738.088929" y="524.36854">a</tspan>
        </text>
        <text id="company" font-family="ArialMT, Arial" font-size="9.34118272" font-weight="normal" letter-spacing="-0.01" fill="#1A3B47">
            <tspan x="743.412685" y="524.36854">c</tspan>
            <tspan x="748.073276" y="524.36854" letter-spacing="0.372774795">o</tspan>
            <tspan x="753.641171" y="524.36854" letter-spacing="0.540822265">m</tspan>
            <tspan x="761.963272" y="524.36854" letter-spacing="0.372774795">p</tspan>
            <tspan x="767.531167" y="524.36854" letter-spacing="-0.0753517942">a</tspan>
            <tspan x="772.650936" y="524.36854" letter-spacing="0.372774795">n</tspan>
            <tspan x="778.218832" y="524.36854">y</tspan>
        </text>
        <g id="Group-60" transform="translate(26.000000, 512.000000)" fill="#1A3B47">
            <path d="M42.00985,9.181 C42.32766,9.62155 42.48656,10.18224 42.48656,10.82304 C42.48656,11.34368 42.40711,11.82427 42.20848,12.22477 C42.00985,12.58521 41.73177,12.90561 41.41397,13.14591 C41.05643,13.3862 40.6989,13.5464 40.22219,13.6265 C39.82493,13.7066 39.34822,13.7867 38.87152,13.7867 C37.79892,13.7867 36.96468,13.5464 36.28934,13.06581 C35.65373,12.54517 35.2962,11.82427 35.25647,10.82304 C35.25647,10.82304 35.2962,10.78299 35.2962,10.78299 C36.24961,10.78299 36.24961,10.78299 36.24961,10.78299 C36.24961,10.78299 36.28934,10.82304 36.28934,10.82304 C36.28934,11.18348 36.32907,11.50388 36.44824,11.70412 C36.60715,11.94442 36.76605,12.14467 37.00441,12.30487 C37.24276,12.42502 37.48111,12.54517 37.79892,12.62526 C38.35508,12.74541 38.99069,12.74541 39.82493,12.66531 C40.10302,12.62526 40.3811,12.54517 40.65918,12.42502 C40.89753,12.26482 41.09616,12.10462 41.25506,11.82427 C41.41397,11.58398 41.49342,11.26358 41.49342,10.82304 C41.49342,10.46259 41.41397,10.14219 41.21534,9.8218 C41.01671,9.54145 40.6989,9.3412 40.30164,9.22105 C37.24276,8.29991 37.24276,8.29991 37.24276,8.29991 C36.64687,8.13972 36.24961,7.89942 35.93181,7.49892 C35.614,7.09843 35.4551,6.61783 35.4551,6.05714 C35.4551,5.5365 35.57428,5.136 35.73318,4.77556 C35.93181,4.41511 36.17016,4.13476 36.48797,3.89447 C36.80578,3.69422 37.16331,3.53402 37.56056,3.41387 C37.99755,3.33377 38.39481,3.29372 38.87152,3.29372 C39.90439,3.29372 40.73863,3.53402 41.37424,4.01461 C42.04958,4.49521 42.36739,5.25615 42.40711,6.21734 C42.40711,6.21734 42.40711,6.25739 42.40711,6.25739 C41.45369,6.25739 41.45369,6.25739 41.45369,6.25739 C41.45369,6.25739 41.45369,6.21734 41.45369,6.21734 C41.41397,5.5365 41.17561,5.0559 40.6989,4.77556 C40.26192,4.45516 39.62631,4.29496 38.83179,4.29496 C38.51398,4.29496 38.2359,4.29496 37.95782,4.37506 C37.67974,4.41511 37.44139,4.49521 37.20303,4.61536 C36.96468,4.73551 36.80578,4.8957 36.64687,5.136 C36.5277,5.3763 36.44824,5.65665 36.44824,6.05714 C36.44824,6.33749 36.5277,6.57778 36.72632,6.81808 C36.88523,7.09843 37.16331,7.25863 37.56056,7.37878 C40.61945,8.25987 40.61945,8.25987 40.61945,8.25987 C41.21534,8.46011 41.69205,8.74046 42.00985,9.181 Z M29.1387,3.29372 C28.86062,3.29372 28.58254,3.33377 28.30446,3.41387 C28.02638,3.45392 27.7483,3.57407 27.47022,3.73427 C27.19214,3.85442 26.95378,4.01461 26.75515,4.21486 C26.6757,4.29496 26.59625,4.33501 26.5168,4.41511 C26.5168,4.41511 26.5168,4.41511 26.5168,4.41511 C26.5168,4.41511 26.5168,4.41511 26.5168,4.41511 C26.5168,4.41511 26.5168,4.41511 26.5168,4.41511 C26.5168,4.41511 26.5168,4.41511 26.5168,4.41511 C26.00037,3.41387 26.00037,3.41387 26.00037,3.41387 C25.56338,3.41387 25.56338,3.41387 25.56338,3.41387 C25.56338,13.7066 25.56338,13.7066 25.56338,13.7066 C26.5168,13.7066 26.5168,13.7066 26.5168,13.7066 C26.5168,6.77803 26.5168,6.77803 26.5168,6.77803 C26.5168,6.37754 26.59625,6.05714 26.71543,5.77679 C26.83461,5.4564 27.03323,5.17605 27.23186,4.9758 C27.47022,4.77556 27.7483,4.61536 28.06611,4.49521 C28.38391,4.37506 28.74144,4.29496 29.1387,4.29496 C29.65514,4.29496 30.05239,4.37506 30.40993,4.53526 C30.72773,4.69546 31.00581,4.8957 31.16472,5.09595 C31.36335,5.33625 31.48252,5.6166 31.56197,5.89694 C31.64143,6.25739 31.68115,6.53773 31.68115,6.81808 C31.68115,13.7066 31.68115,13.7066 31.68115,13.7066 C32.63457,13.7066 32.63457,13.7066 32.63457,13.7066 C32.63457,6.81808 32.63457,6.81808 32.63457,6.81808 C32.63457,5.6967 32.31676,4.81561 31.72088,4.21486 C31.08526,3.61412 30.2113,3.29372 29.1387,3.29372 Z M66.00422,13.7867 C66.87819,13.7867 67.55353,13.5464 68.03023,13.14591 C67.6727,12.22477 67.6727,12.22477 67.6727,12.22477 C67.31517,12.54517 66.79873,12.82551 66.00422,12.82551 C65.44806,12.82551 65.01108,12.62526 64.73299,12.30487 C64.45491,11.94442 64.29601,11.38373 64.29601,10.54269 C64.29601,4.33501 64.29601,4.33501 64.29601,4.33501 C67.39462,4.33501 67.39462,4.33501 67.39462,4.33501 C67.43435,4.33501 67.43435,4.33501 67.43435,4.33501 C67.43435,3.41387 67.43435,3.41387 67.43435,3.41387 C67.43435,3.41387 67.43435,3.41387 67.39462,3.41387 C64.29601,3.41387 64.29601,3.41387 64.29601,3.41387 C64.29601,0.29001 64.29601,0.29001 64.29601,0.29001 C63.34259,0.29001 63.34259,0.29001 63.34259,0.29001 C63.34259,10.58274 63.34259,10.58274 63.34259,10.58274 C63.34259,11.66408 63.58095,12.46507 64.01793,12.98571 C64.49464,13.50635 65.16998,13.7867 66.00422,13.7867 Z M10.30868,3.29372 C10.30868,3.29372 10.30868,3.29372 10.30868,3.29372 C10.26896,3.29372 10.26896,3.29372 10.26896,3.29372 C9.15664,3.29372 8.28267,3.61412 7.64706,4.21486 C7.44843,4.41511 7.28953,4.61536 7.17035,4.85565 C7.05117,4.61536 6.89227,4.41511 6.69364,4.21486 C6.05803,3.61412 5.22379,3.29372 4.11146,3.29372 C4.03201,3.29372 4.03201,3.29372 4.03201,3.29372 C2.91969,3.29372 2.04572,3.61412 1.41011,4.21486 C0.7745,4.85565 0.45669,5.73674 0.45669,6.85813 C0.45669,13.7066 0.45669,13.7066 0.45669,13.7066 C1.44984,13.7066 1.44984,13.7066 1.44984,13.7066 C1.44984,6.85813 1.44984,6.85813 1.44984,6.85813 C1.44984,6.53773 1.48956,6.25739 1.52929,5.93699 C1.60874,5.65665 1.76764,5.3763 1.92655,5.136 C2.12518,4.8957 2.40326,4.69546 2.72106,4.53526 C3.03887,4.37506 3.47585,4.29496 3.99229,4.29496 C3.99229,4.29496 4.03201,4.29496 4.07174,4.29496 C4.58817,4.29496 5.02516,4.37506 5.38269,4.53526 C5.70049,4.69546 5.97858,4.8957 6.13748,5.136 C6.33611,5.3763 6.45528,5.6166 6.53474,5.93699 C6.61419,6.25739 6.65391,6.57778 6.65391,6.85813 C6.65391,13.7066 6.65391,13.7066 6.65391,13.7066 C7.68678,13.7066 7.68678,13.7066 7.68678,13.7066 C7.68678,6.85813 7.68678,6.85813 7.68678,6.85813 C7.68678,6.57778 7.72651,6.25739 7.80596,5.93699 C7.84569,5.65665 8.00459,5.3763 8.16349,5.136 C8.36212,4.8957 8.6402,4.69546 8.95801,4.53526 C9.27581,4.37506 9.7128,4.29496 10.22923,4.29496 C10.26896,4.29496 10.26896,4.29496 10.30868,4.29496 C10.86485,4.29496 11.30183,4.37506 11.61964,4.53526 C11.93744,4.69546 12.21552,4.8957 12.41415,5.136 C12.57305,5.3763 12.73196,5.65665 12.81141,5.93699 C12.85113,6.25739 12.89086,6.57778 12.89086,6.85813 C12.89086,13.7066 12.89086,13.7066 12.89086,13.7066 C13.884,13.7066 13.884,13.7066 13.884,13.7066 C13.884,6.85813 13.884,6.85813 13.884,6.85813 C13.884,5.73674 13.5662,4.85565 12.93059,4.21486 C12.29497,3.61412 11.42101,3.29372 10.30868,3.29372 Z M60.91932,13.66655 C60.95905,13.66655 60.95905,13.66655 60.99877,13.66655 C60.99877,12.74541 60.99877,12.74541 60.99877,12.74541 C60.95905,12.74541 60.95905,12.74541 60.91932,12.74541 C58.93303,12.74541 58.93303,12.74541 58.93303,12.74541 C58.93303,3.41387 58.93303,3.41387 58.93303,3.41387 C55.31799,3.41387 55.31799,3.41387 55.31799,3.41387 C55.27826,3.41387 55.27826,3.41387 55.27826,3.41387 C55.27826,4.33501 55.27826,4.33501 55.27826,4.33501 C55.27826,4.33501 55.27826,4.33501 55.31799,4.33501 C57.93989,4.33501 57.93989,4.33501 57.93989,4.33501 C57.93989,12.74541 57.93989,12.74541 57.93989,12.74541 C55.31799,12.74541 55.31799,12.74541 55.31799,12.74541 C55.27826,12.74541 55.27826,12.74541 55.27826,12.74541 C55.27826,13.66655 55.27826,13.66655 55.27826,13.66655 C55.27826,13.66655 55.27826,13.66655 55.31799,13.66655 L60.91932,13.66655 Z M20.59766,3.41387 C16.94289,3.41387 16.94289,3.41387 16.94289,3.41387 C16.90316,3.41387 16.86344,3.41387 16.82371,3.45392 C16.82371,4.33501 16.82371,4.33501 16.82371,4.33501 C16.86344,4.33501 16.90316,4.33501 16.94289,4.33501 C19.60452,4.33501 19.60452,4.33501 19.60452,4.33501 C19.60452,12.74541 19.60452,12.74541 19.60452,12.74541 C16.82371,12.74541 16.82371,12.74541 16.82371,12.74541 C16.82371,13.66655 16.82371,13.66655 16.82371,13.66655 C16.86344,13.66655 22.54422,13.66655 22.54422,13.66655 C22.54422,12.74541 22.54422,12.74541 22.54422,12.74541 C20.59766,12.74541 20.59766,12.74541 20.59766,12.74541 L20.59766,3.41387 Z M51.98102,5.33625 C52.13992,5.77679 52.21938,6.25739 52.21938,6.77803 C52.21938,13.66655 52.21938,13.66655 52.21938,13.66655 C51.62349,13.66655 51.62349,13.66655 51.62349,13.66655 C51.30568,12.86556 51.30568,12.86556 51.30568,12.86556 C51.30568,12.90561 51.30568,12.90561 51.30568,12.90561 C51.30568,12.82551 51.30568,12.82551 51.30568,12.82551 C51.30568,12.86556 51.26596,12.86556 51.26596,12.86556 C50.63034,13.4663 49.75638,13.7867 48.68378,13.7867 C47.57146,13.7867 46.69749,13.4663 46.06188,12.86556 C45.42627,12.26482 45.10846,11.38373 45.10846,10.26234 C45.10846,6.77803 45.10846,6.77803 45.10846,6.77803 C45.10846,6.25739 45.18791,5.77679 45.34682,5.33625 C45.54545,4.93575 45.7838,4.53526 46.06188,4.25491 C46.37969,3.93452 46.73722,3.69422 47.21393,3.53402 C48.0879,3.21362 49.23994,3.21362 50.11391,3.53402 C50.59062,3.69422 50.94815,3.93452 51.26596,4.25491 C51.54404,4.53526 51.82212,4.93575 51.98102,5.33625 Z M51.22623,6.77803 C51.22623,6.01709 50.98788,5.3763 50.55089,4.93575 C50.11391,4.49521 49.4783,4.29496 48.68378,4.29496 C47.84954,4.29496 47.21393,4.49521 46.77695,4.93575 C46.33996,5.3763 46.10161,5.97704 46.10161,6.77803 C46.10161,10.26234 46.10161,10.26234 46.10161,10.26234 C46.10161,10.54269 46.14133,10.82304 46.22079,11.14343 C46.30023,11.42378 46.41941,11.70412 46.61804,11.94442 C46.77695,12.18472 47.05502,12.38497 47.37283,12.54517 C47.69064,12.70536 48.12762,12.78546 48.68378,12.78546 C49.20021,12.78546 49.6372,12.70536 49.95501,12.54517 C50.31254,12.38497 50.55089,12.18472 50.74952,11.94442 C50.90842,11.70412 51.0276,11.42378 51.10706,11.14343 C51.1865,10.82304 51.22623,10.54269 51.22623,10.26234 L51.22623,6.77803 Z" id="Fill-59"></path>
        </g>
    </g>
</svg>