<?xml version="1.0" encoding="UTF-8"?>
<svg width="960px" height="540px" viewBox="0 0 960 540" version="1.1" xmlns="http://www.w3.org/2000/svg" xmlns:xlink="http://www.w3.org/1999/xlink">
    <!-- Generator: Sketch 60.1 (88133) - https://sketch.com -->
    <title>Artboard 1</title>
    <desc>Created with Sketch.</desc>
    <g id="Artboard-1" stroke="none" stroke-width="1" fill="none" fill-rule="evenodd">
        <g id="Group-30" transform="translate(26.000000, 124.000000)">
            <g id="imagen-home" transform="translate(513.744200, 0.986800)">
                <path d="M0.0545,5.68434189e-14 L17.7119,4.9973 C17.8229,98.4949 17.9341,191.9925 18.0451,285.4901 L0.0545,291.1815 L0.0545,5.68434189e-14 Z" id="Fill-18" fill="#F7AC6F"></path>
                <polygon id="Fill-19" fill="#F7AC6F" points="145.7285 46.9754 163.8608 46.9754 163.8608 244.206 145.7285 244.206"></polygon>
                <polygon id="Fill-20" fill="#F7AC6F" points="163.2723 46.735 158.2744 64.1648 -2.27373675e-13 18.7804 4.9979 1.3505"></polygon>
                <polygon id="Fill-21" fill="#F7AC6F" points="158.4835 226.4092 163.4815 243.8391 11.4055 287.4462 6.4076 270.0163"></polygon>
                <path d="M103.0252,5.68434189e-14 L120.6827,4.9973 C120.7937,98.4949 120.9048,191.9925 121.0158,285.4901 L103.0252,291.1815 L103.0252,5.68434189e-14 Z" id="Fill-22" fill="#FDE3D3"></path>
                <polygon id="Fill-23" fill="#FDE3D3" points="248.6993 46.9754 266.8315 46.9754 266.8315 244.206 248.6993 244.206"></polygon>
                <polygon id="Fill-24" fill="#FDE3D3" points="266.243 46.735 261.2451 64.1648 102.9707 18.7804 107.9687 1.3505"></polygon>
                <polygon id="Fill-25" fill="#FDE3D3" points="261.4542 226.4092 266.4522 243.8391 114.3763 287.4462 109.3783 270.0163"></polygon>
                <path d="M205.996,5.68434189e-14 L223.6534,4.9973 C223.7644,98.4949 223.8756,191.9925 223.9866,285.4901 L205.996,291.1815 L205.996,5.68434189e-14 Z" id="Fill-26" fill="#639FCB"></path>
                <polygon id="Fill-27" fill="#639FCB" points="351.67 46.9754 369.8023 46.9754 369.8023 244.206 351.67 244.206"></polygon>
                <polygon id="Fill-28" fill="#639FCB" points="369.2138 46.735 364.2159 64.1648 205.9415 18.7804 210.9394 1.3505"></polygon>
                <polygon id="Fill-29" fill="#639FCB" points="364.425 226.4092 369.423 243.8391 217.347 287.4462 212.3491 270.0163"></polygon>
                <path d="M0.0856,0 L17.7523,4.9973 C17.8634,98.4949 17.9746,191.9925 18.0856,285.4901 L0.0856,291.1815 L0.0856,0 Z" id="Fill-6" fill="#F7AC6F"></path>
                <polygon id="Fill-7" fill="#F7AC6F" points="145.8355 46.9754 163.9773 46.9754 163.9773 244.206 145.8355 244.206"></polygon>
                <polygon id="Fill-8" fill="#F7AC6F" points="163.3872 46.7468 158.3892 64.1766 0.0324 18.7685 5.0304 1.3387"></polygon>
                <polygon id="Fill-9" fill="#F7AC6F" points="158.5985 226.3979 163.5965 243.8278 11.4414 287.4575 6.4435 270.0277"></polygon>
                <path d="M103.11,0 L120.7766,4.9973 C120.8877,98.4949 120.9989,191.9925 121.11,285.4901 L103.11,291.1815 L103.11,0 Z" id="Fill-10" fill="#FDE3D3"></path>
                <polygon id="Fill-11" fill="#FDE3D3" points="248.8599 46.9754 267.0016 46.9754 267.0016 244.206 248.8599 244.206"></polygon>
                <polygon id="Fill-12" fill="#FDE3D3" points="266.4115 46.7468 261.4136 64.1766 103.0568 18.7685 108.0547 1.3387"></polygon>
                <polygon id="Fill-13" fill="#FDE3D3" points="261.6229 226.3979 266.6208 243.8278 114.4657 287.4575 109.4678 270.0277"></polygon>
                <path d="M206.1344,0 L223.8011,4.9973 C223.9122,98.4949 224.0233,191.9925 224.1344,285.4901 L206.1344,291.1815 L206.1344,0 Z" id="Fill-14" fill="#639FCB"></path>
                <polygon id="Fill-15" fill="#639FCB" points="351.8844 46.9754 370.0261 46.9754 370.0261 244.206 351.8844 244.206"></polygon>
                <polygon id="Fill-16" fill="#639FCB" points="369.436 46.7468 364.4381 64.1766 206.0813 18.7685 211.0792 1.3387"></polygon>
                <polygon id="Fill-17" fill="#639FCB" points="364.6473 226.3979 369.6453 243.8278 217.4902 287.4575 212.4922 270.0277"></polygon>
            </g>
        </g>
    </g>
</svg>