<?xml version="1.0" encoding="UTF-8"?>
<svg width="657px" height="325px" viewBox="0 0 657 325" version="1.1" xmlns="http://www.w3.org/2000/svg" xmlns:xlink="http://www.w3.org/1999/xlink">
    <!-- Generator: Sketch 60.1 (88133) - https://sketch.com -->
    <title>ejemplo-flujo-desarrollo-continuo1</title>
    <desc>Created with Sketch.</desc>
    <g id="Page-1" stroke="none" stroke-width="1" fill="none" fill-rule="evenodd">
        <g id="Artboard" transform="translate(0.000000, -111.000000)" fill-rule="nonzero">
            <g id="ejemplo-flujo-desarrollo-continuo1" transform="translate(0.000000, 111.000000)">
                <g id="#fbb028ff" transform="translate(260.085124, 0.000000)" fill="#FBB028">
                    <path d="M166.677099,16.8268017 C201.248331,-0.124884298 241.699983,-4.14833058 279.121835,4.59357025 C289.970479,7.17813223 300.591074,10.8323554 310.641545,15.6919835 C312.922041,30.0428182 315.604339,44.3339256 317.949992,58.6739008 C318.20519,60.4385702 318.829612,62.2629669 318.259488,64.0276364 C317.738231,65.8846116 316.293917,67.5189669 314.377215,67.9696364 C310.608967,68.8492562 306.775562,69.4248099 302.947587,69.9949339 C292.831959,71.8899174 282.656603,73.4156777 272.535545,75.2726529 C256.246289,68.8818347 238.148926,67.5786942 220.96919,70.5541983 C200.042926,74.306157 180.658711,85.4697273 166.611942,101.38976 C167.437264,88.5809752 168.050826,75.7613306 168.973884,62.9579752 C169.386545,60.0476281 167.377537,56.9255207 164.445471,56.3662562 C148.69919,55.122843 132.914901,54.487562 117.16319,53.347314 C131.345702,38.3883471 148.058479,25.7478843 166.677099,16.8268017 M222.967339,27.8166198 C223.021636,32.4644876 223.206248,37.1069256 223.37457,41.7493636 C224.134736,41.7276446 224.894901,41.7059256 225.671355,41.6842066 C225.611628,39.9955537 225.57362,38.3014711 225.535612,36.6128182 C227.913843,36.5530909 230.862198,36.2707438 232.067603,33.8707934 C232.550851,32.1224132 232.616008,29.7441818 230.965364,28.5767851 C228.554554,27.1324711 225.617058,27.7677521 222.967339,27.8166198 M235.955306,27.7080248 C235.705537,32.3504628 235.472058,36.9874711 235.271157,41.6299091 C238.018612,41.8308099 240.771496,42.004562 243.53524,42.069719 C243.551529,41.5810413 243.584107,40.603686 243.600397,40.1150083 C241.613107,40.0227025 239.631248,39.9303967 237.649388,39.8380909 C237.817711,35.8417934 238.040331,31.8509256 238.27924,27.8546281 C237.497355,27.8057603 236.720901,27.7568926 235.955306,27.7080248 M211.266223,28.6310826 C211.456264,33.3603967 212.211,38.0354132 212.634521,42.7375785 C215.240802,42.3955041 217.857942,42.1185868 220.480512,41.8905372 C220.431645,41.3964298 220.339339,40.4136446 220.290471,39.9195372 C218.433496,40.1312975 216.576521,40.3539174 214.724975,40.5765372 C214.556653,39.0996446 214.388331,37.6227521 214.236298,36.1458595 C216.006397,35.9340992 217.776496,35.7223388 219.552025,35.5377273 C219.519446,35.0816281 219.44886,34.1748595 219.416281,33.7187603 C217.608174,33.8707934 215.805496,34.055405 214.008248,34.250876 C213.883364,32.9531653 213.763909,31.6554545 213.649884,30.3631736 C215.517719,30.2491488 217.385554,30.091686 219.253388,29.9179339 C219.237099,29.4238264 219.204521,28.4356116 219.188231,27.9415041 C216.543942,28.1804132 213.910512,28.4790496 211.266223,28.6310826 M249.964066,29.0220248 C246.423868,30.5260661 245.332488,35.0273306 246.054645,38.4915124 C247.080868,43.4543058 254.606504,45.0017851 257.576579,40.9403306 C259.30324,38.4589339 259.607306,35.0599091 258.64081,32.2255785 C257.261653,29.038314 253.059025,27.8709174 249.964066,29.0220248 M196.030339,31.2102149 C196.899099,35.8255041 197.795008,40.4353636 198.571463,45.0669421 C201.069149,44.5131074 203.735157,44.3393554 206.004793,43.0525041 C210.207421,40.3647769 209.392959,33.3006694 205.288066,30.9278678 C202.328851,29.543281 199.054711,30.7649752 196.030339,31.2102149 M262.028975,30.1894215 C262.827149,33.3495372 263.837083,36.4607851 264.54838,39.6371901 C264.385488,41.4398678 263.799074,43.1610992 263.402702,44.9203388 C264.146579,45.1103802 264.895884,45.3004215 265.65605,45.4958926 C266.171876,43.5900496 266.31305,41.5321736 267.257826,39.7783636 C269.174529,37.3241157 271.471314,35.1902231 273.263132,32.6328099 C272.470388,32.4970661 271.683074,32.3667521 270.90662,32.236438 C269.35914,34.0662645 267.789942,35.8743719 266.280471,37.7367769 C265.634331,35.412843 265.058777,33.0780496 264.483223,30.7378264 C263.657901,30.5532149 262.838008,30.3686033 262.028975,30.1894215 Z" id="Shape"></path>
                    <path d="M320.089314,20.6384876 C339.02286,31.3676777 355.464149,46.4298099 367.898281,64.2828347 C381.744149,84.0417025 390.638083,107.118149 394.390041,130.911322 C398.484074,156.556041 397.180934,183.210694 389.416388,208.05724 C378.752355,243.046562 355.811653,274.001579 325.801413,294.840967 C310.98362,290.562322 296.09524,286.555165 281.282876,282.254802 C278.258504,281.538074 276.37438,277.943579 277.319157,275.027802 C280.821347,262.343901 284.47014,249.698008 287.98862,237.014107 C288.270967,235.596942 289.682702,234.967091 290.703496,234.141769 C309.251529,220.08414 322.282934,198.864669 326.165207,175.896818 C328.92895,160.166826 327.587802,143.763545 322.668446,128.587388 C316.353645,109.05657 302.947587,91.8171074 285.197727,81.3974132 C297.132322,79.453562 309.023479,77.2870909 320.952645,75.3323802 C323.211421,74.9088595 325.87743,74.6102231 327.267446,72.5089091 C328.619455,70.9017025 328.429413,68.6700744 328.119917,66.7425124 C325.329025,51.3926033 322.907355,35.9829669 320.089314,20.6384876 M370.591438,150.838512 C365.340868,151.728992 364.054017,159.325215 368.050314,162.425603 C370.624017,164.173983 374.137066,164.152264 376.965967,163.022876 C381.336917,161.057306 381.510669,153.862884 377.362339,151.576959 C375.320752,150.414992 372.833926,150.371554 370.591438,150.838512 M365.541769,168.925017 C367.25757,169.06076 368.978802,169.196504 370.705463,169.310529 C370.651165,170.928595 370.368818,172.633537 370.99324,174.186446 C371.921727,176.982769 376.140645,177.694066 378.100785,175.614471 C379.653694,173.371983 379.441934,170.494215 379.832876,167.915083 C375.13614,167.344959 370.406826,167.133198 365.72095,166.541355 C365.655793,167.334099 365.585207,168.126843 365.541769,168.925017 M362.859471,186.191628 C363.31557,186.235066 364.222339,186.327372 364.678438,186.37624 C365.28657,184.573562 365.498331,182.673149 365.845835,180.810744 C367.295579,181.10938 368.739893,181.413446 370.195066,181.717512 C369.847562,183.444174 369.532636,185.181694 369.299157,186.930074 C369.907289,187.02238 370.520851,187.120116 371.145273,187.217851 C371.471058,185.507479 371.775124,183.786248 372.100909,182.070446 C373.376901,182.303926 374.663752,182.548264 375.945174,182.787174 C375.559661,184.665868 375.190438,186.555421 374.826645,188.444975 C375.293603,188.515562 376.23295,188.662165 376.699909,188.732752 C377.259174,186.104752 377.796719,183.465893 378.252818,180.816174 C373.62124,180.121165 369.049388,179.116661 364.466678,178.193603 C363.847686,180.843322 363.31557,183.509331 362.859471,186.191628 M362.21876,188.922793 C362.01243,189.65581 361.827818,190.394256 361.643207,191.127273 C363.483893,191.594231 365.292,192.164355 367.094678,192.772488 C366.654868,193.510934 366.736314,194.814074 365.73181,195.031264 C363.858545,195.585099 361.930983,195.938033 360.057719,196.491868 C359.547322,198.033917 358.993488,199.559678 358.439653,201.085438 C359.438727,201.965058 360.448661,202.844678 361.464025,203.724298 C360.866752,205.41838 360.231471,207.090744 359.536463,208.741388 C358.103008,208.70881 356.685843,208.676231 355.263248,208.654512 C354.99719,209.387529 354.747421,210.120545 354.497653,210.858992 C359.482165,211.011025 364.472107,211.021884 369.45119,211.304231 C369.776975,210.538636 370.097331,209.773041 370.428545,209.012876 C366.855769,205.602992 363.120099,202.372289 359.541893,198.978694 C361.740942,198.240248 363.978,197.615826 366.242207,197.083711 C366.768893,198.20224 367.013231,199.695421 368.283793,200.238397 C369.863851,201.188603 372.149777,201.080008 373.317174,199.521669 C374.647463,197.556099 375.065554,195.156149 375.744273,192.919091 C371.275587,191.453058 366.736314,190.204215 362.21876,188.922793 M352.36919,214.491496 C352.070554,215.175645 351.782777,215.865223 351.50043,216.554802 C355.089496,218.319471 358.580826,220.268752 362.169893,222.033421 C361.534612,223.282264 360.91019,224.536537 360.307488,225.801669 C360.888471,226.067727 361.480314,226.339215 362.077587,226.616132 C363.630496,223.456017 365.313719,220.361058 366.915496,217.222661 C366.481116,217.02176 365.612355,216.619959 365.177975,216.419058 C364.526405,217.597314 363.874835,218.77557 363.234124,219.959256 C359.558182,218.238025 356.066851,216.15843 352.36919,214.491496 M344.25714,228.532835 C344.783826,228.885769 345.321372,229.244132 345.864347,229.602496 C346.874281,228.011579 347.884215,226.420661 348.888719,224.824314 C350.142992,225.584479 351.402694,226.355504 352.662397,227.137388 C351.685041,228.657719 350.745694,230.199769 349.806347,231.736388 C350.208149,231.975298 351.017182,232.458545 351.424413,232.697455 C352.38005,231.177124 353.357405,229.667653 354.35105,228.174471 C355.382702,228.869479 356.430645,229.564488 357.478587,230.259496 C356.506661,231.855843 355.523876,233.441331 354.524802,235.021388 C355.056917,235.374322 355.599893,235.727256 356.153727,236.08562 C357.554603,233.826843 358.971769,231.584355 360.437802,229.363587 C356.468653,226.806174 352.418058,224.373645 348.492347,221.761934 C347.091471,224.02614 345.647157,226.263198 344.25714,228.532835 Z" id="Shape"></path>
                    <path d="M225.36186,29.5812893 C226.87676,29.6627355 228.896628,29.2935124 229.852264,30.8084132 C230.188909,31.7911983 230.17262,33.0997686 229.29843,33.8110661 C228.250488,34.7069752 226.751876,34.4789256 225.481314,34.6526777 C225.427017,32.9640248 225.389008,31.2699421 225.36186,29.5812893 Z" id="Path"></path>
                    <path d="M250.561339,31.1504876 C252.678942,29.8636364 256.208281,30.9387273 256.599223,33.593876 C256.87614,36.0318347 256.778405,39.0616364 254.622793,40.6797025 C252.440033,41.9774132 249.095306,40.9566198 248.476314,38.3449091 C247.998496,35.8526529 248.449165,32.8011322 250.561339,31.1504876 Z" id="Path"></path>
                    <path d="M198.685488,32.6273802 C200.634769,32.4210496 202.964132,31.7206116 204.625636,33.1594959 C206.281711,34.8481488 206.596636,37.5032975 206.042802,39.7186364 C205.190331,42.004562 202.480884,42.3303471 200.417579,42.770157 C199.999488,39.3602727 199.217603,36.0155455 198.685488,32.6273802 Z" id="Path"></path>
                    <path d="M86.4688017,88.6026942 C93.951,79.3015289 101.802421,70.3098595 109.860174,61.5028017 C121.365818,62.5561736 132.914901,63.1100083 144.453124,63.7615785 C148.156215,64.2285372 151.913603,63.837595 155.600405,64.429438 C158.603058,64.9832727 160.655504,68.1433884 160.226554,71.1188926 C159.20576,84.5086612 158.657355,97.9310083 157.707149,111.326207 C143.193421,128.831727 128.951182,146.559868 114.556909,164.163124 C99.163562,183.004364 83.8245124,201.889041 68.4474545,220.74114 C60.0041901,231.090248 51.6695207,241.537091 43.1176612,251.799322 C44.6814298,235.928157 46.7230165,220.10586 48.3899504,204.250983 C48.531124,202.958702 48.7157355,201.660992 48.6885868,200.363281 C48.6017107,197.827587 46.5709835,195.416777 44.019,195.096421 C38.8390165,194.423132 33.6481736,193.782421 28.4519008,193.255736 C21.4963884,192.663893 14.6006033,191.523645 7.64509091,190.931802 C5.10939669,190.725471 2.58456198,190.388826 0.0597272727,190.068471 C4.75103306,184.644149 9.20342975,179.018926 13.9381736,173.638041 C17.2286033,170.331322 20.3127025,166.812843 22.973281,162.984868 C37.9865455,145.158992 53.1409835,127.45257 68.2302645,109.691851 C74.3930331,102.736339 80.6263884,95.835124 86.4688017,88.6026942 M95.1509752,124.873438 C98.7183223,127.930388 102.187934,131.101364 105.733562,134.185463 C107.438504,132.165595 109.235752,130.232603 110.918975,128.196446 C110.452017,127.772926 109.995917,127.349405 109.539818,126.925884 C108.269256,128.321331 107.009554,129.716777 105.77157,131.133942 C104.658471,130.172876 103.572521,129.195521 102.492,128.201876 C103.626818,126.887876 104.772496,125.573876 105.934463,124.276165 C105.445785,123.858074 104.967967,123.439983 104.490149,123.021893 C103.317322,124.325033 102.160785,125.639033 101.009678,126.958463 C100.059471,126.111421 99.1092645,125.26981 98.1644876,124.422769 C99.4079008,122.994744 100.651314,121.566719 101.905587,120.149554 C101.525504,119.845488 100.776198,119.237355 100.401545,118.938719 C98.6314463,120.89886 96.9047851,122.902438 95.1509752,124.873438 M89.221686,132.458802 C88.7221488,134.608983 90.687719,136.818893 92.8487603,136.715727 C95.2378512,136.900339 97.0731074,134.435231 99.4784876,134.983636 C100.656744,135.635207 100.564438,137.361868 99.798843,138.290355 C98.7997686,139.479471 97.4423306,140.277645 96.1771983,141.146405 C96.7310331,141.586215 97.2902975,142.031455 97.8549917,142.482124 C99.8477107,141.124686 102.128207,139.430603 102.470281,136.86776 C102.910091,134.733868 101.009678,132.480521 98.8377769,132.610835 C96.8559174,132.583686 95.3030083,134.044289 93.4297438,134.45695 C92.4795372,134.701289 91.323,134.03886 91.3555785,132.990917 C91.1872562,130.95476 93.4351736,130.09686 94.7926116,129.092355 C94.4831157,128.500512 94.1790496,127.914099 93.885843,127.327686 C91.8876942,128.484223 89.5963388,129.999124 89.221686,132.458802 M81.6471818,139.93014 C84.0634215,144.344529 86.3167686,148.851223 88.8361736,153.205884 C89.330281,152.614041 89.8243884,152.016769 90.3239256,151.430355 C89.6832149,150.203231 89.0479339,148.981537 88.4235124,147.748983 C89.5800496,146.429554 90.731157,145.110124 91.8605455,143.774405 C93.1691157,144.284802 94.4668264,144.811488 95.7699669,145.349033 C96.2749339,144.708322 96.7853306,144.067612 97.2902975,143.432331 C92.6261405,141.68938 88.0108512,139.821545 83.330405,138.138322 C82.7657107,138.735595 82.2064463,139.332868 81.6471818,139.93014 M72.1885537,151.006835 C75.7341818,154.085504 79.2092231,157.24562 82.7982893,160.275421 C84.5140909,158.271843 86.3384876,156.36057 87.994562,154.308124 C87.5221736,153.900893 87.0552149,153.499091 86.5882562,153.097289 C85.3394132,154.492736 84.0905702,155.882752 82.803719,157.24019 C81.7014793,156.306273 80.6100992,155.356066 79.5458678,154.38957 C80.680686,153.032132 81.8480826,151.701843 83.0317686,150.382413 C82.5322314,149.969752 82.0435537,149.557091 81.554876,149.14443 C80.4037686,150.44757 79.2580909,151.750711 78.117843,153.064711 C77.1404876,152.244818 76.1631322,151.419496 75.1966364,150.594174 C76.4834876,149.182438 77.6943223,147.705545 78.905157,146.234083 C78.5576529,145.935446 77.8680744,145.338174 77.5205702,145.044967 C75.7070331,146.999678 73.9912314,149.041264 72.1885537,151.006835 M65.0484298,159.042868 C68.5289008,162.143256 72.0473802,165.200207 75.5441405,168.284306 C77.3413884,166.248149 79.1006281,164.173983 80.9630331,162.197554 C80.4797851,161.714306 80.0073967,161.231058 79.540438,160.75324 C78.2535868,162.213843 76.955876,163.674446 75.7016033,165.167628 C72.4383223,162.751388 69.576843,159.841041 66.4764545,157.223901 C65.9986364,157.826603 65.5208182,158.434736 65.0484298,159.042868 M57.7888512,167.192926 C61.2584628,170.342182 64.7769421,173.431711 68.328,176.488661 C70.0600909,174.490512 71.8030413,172.508653 73.6002893,170.570231 C73.1116116,170.141281 72.6337934,169.71776 72.1559752,169.299669 C70.8582645,170.678826 69.5605537,172.068843 68.3442893,173.518587 C67.2529091,172.524942 66.1615289,171.542157 65.0592893,170.570231 C66.1941074,169.272521 67.3289256,167.96395 68.4691736,166.66624 C68.0402231,166.193851 67.6112727,165.726893 67.1931818,165.259934 C65.9660579,166.601083 64.7606529,167.96395 63.5715372,169.332248 C62.6376198,168.463488 61.7091322,167.600157 60.7752149,166.742256 C61.9969091,165.34138 63.2077438,163.940504 64.4185785,162.528769 C63.9461901,162.099818 63.4846612,161.670868 63.0231322,161.247347 C61.2638926,163.212917 59.5100826,165.189347 57.7888512,167.192926 M49.5193388,176.624405 C52.9889504,179.80081 56.5780165,182.846901 60.0747769,185.996157 C60.5688843,185.404314 61.0684215,184.817901 61.5679587,184.231488 C60.1996612,182.993504 58.8150744,181.77724 57.4250579,180.566405 C57.9191653,179.974562 58.4187025,179.388149 58.9182397,178.801736 C61.0412727,179.246975 63.1643058,179.675926 65.3036281,180.072298 C65.8628926,179.393579 66.4275868,178.71486 66.992281,178.03614 C64.6303388,177.753793 62.2792562,177.362851 59.9281736,176.999058 C60.7426364,174.360198 58.8802314,171.058909 55.9047273,171.319537 C52.9780909,171.770207 51.4686198,174.713132 49.5193388,176.624405 Z" id="Shape"></path>
                    <path d="M84.139438,140.478545 C86.0832893,141.271289 88.0325702,142.074893 89.9601322,142.921934 C89.0913719,143.942727 88.2171818,144.963521 87.3538512,145.978884 C86.2841901,144.143628 85.2199587,142.308372 84.139438,140.478545 Z" id="Path"></path>
                    <path d="M370.515421,153.412215 C372.817636,152.679198 375.727983,152.814942 377.519802,154.61762 C378.86638,156.442017 378.567744,159.732446 376.303537,160.715231 C374.120777,161.578562 371.525355,161.622 369.413182,160.568628 C366.703736,158.950562 367.290149,154.058355 370.515421,153.412215 Z" id="Path"></path>
                    <path d="M372.600446,169.554868 C374.294529,169.674322 375.994041,169.799207 377.693554,169.924091 C377.432926,171.276099 377.595818,172.894165 376.569595,173.958397 C375.608529,174.588248 374.337967,174.501372 373.39319,173.920388 C372.133488,172.829008 372.676463,170.999182 372.600446,169.554868 Z" id="Path"></path>
                    <path d="M52.5111322,176.276901 C53.4341901,175.049777 54.5852975,174.018124 55.9590248,173.312256 C56.7897769,174.028983 58.1743636,174.615397 58.0983471,175.929397 C57.9191653,177.286835 56.7843471,178.231612 56.0187521,179.284983 C54.8459256,178.280479 53.6730992,177.281405 52.5111322,176.276901 Z" id="Path"></path>
                    <path d="M368.79419,193.239446 C370.31995,193.635818 371.840281,194.070198 373.355182,194.537157 C372.937091,195.595959 372.627595,196.719917 371.992314,197.675554 C370.98238,199.201314 368.283793,198.278256 368.126331,196.551595 C368.153479,195.416777 368.517273,194.330826 368.79419,193.239446 Z" id="Path"></path>
                    <path d="M361.594339,208.882562 C362.104736,207.660868 362.615132,206.439174 363.125529,205.217479 C364.738165,206.645504 366.372521,208.04638 368.082893,209.35495 C365.916421,209.208347 363.75538,209.078033 361.594339,208.882562 Z" id="Path"></path>
                    <path d="M247.04286,252.624645 C257.858926,251.120603 268.289479,247.488099 277.959868,242.465579 C274.256777,255.171198 270.760017,267.931116 267.154661,280.663884 C266.09043,283.568802 267.605331,287.10357 270.542826,288.167802 C285.724413,292.555041 301.014595,296.594777 316.163603,301.106901 C294.34686,314.007992 269.641488,322.109182 244.344273,324.031314 C228.19619,325.627661 211.77662,324.275653 196.090066,320.154471 C173.399132,314.208893 152.369702,302.920438 133.647917,288.922537 C132.893182,276.770752 132.453372,264.608107 131.666058,252.461752 C131.416289,250.246413 132.377355,247.873612 134.315777,246.695355 C136.797174,244.974124 139.984438,245.886322 142.79162,245.397645 C159.108025,244.713496 175.391851,243.394066 191.713686,242.829372 C192.72362,242.699058 193.576091,243.323479 194.450281,243.73614 C210.424612,252.228273 229.146397,255.779331 247.04286,252.624645 M154.020347,276.36895 C154.628479,276.721884 155.236612,277.080248 155.855603,277.444041 C157.593124,273.936421 159.66186,270.597124 161.144182,266.96462 C160.867264,271.11295 160.025653,275.190694 159.352364,279.284727 C159.982215,279.577934 160.617496,279.87657 161.258207,280.169777 C164.331446,277.351736 167.464413,274.587992 170.505074,271.726512 C168.648099,275.206983 166.622802,278.606008 164.977587,282.200504 C165.602008,282.526289 166.22643,282.857504 166.856281,283.188719 C169.06619,279.056678 171.205512,274.881198 173.475149,270.781736 C172.492364,270.271339 171.515008,269.750083 170.548512,269.223397 C167.605587,271.970851 164.592074,274.63143 161.643719,277.362595 C162.27357,273.366298 163.055455,269.391719 163.392099,265.351983 C162.469041,264.906744 161.551413,264.456074 160.639215,264.010835 C158.375008,268.099438 156.241116,272.258628 154.020347,276.36895 M176.608116,273.806107 C173.790074,275.331868 172.313182,278.703744 172.220876,281.798702 C172.106851,285.827579 176.618975,288.488157 180.262339,287.939752 C183.992579,287.157868 185.800686,283.080124 185.985298,279.610512 C186.126471,275.033231 180.544686,272.171752 176.608116,273.806107 M190.073901,277.096537 C189.096545,281.673818 187.565355,286.115355 186.723744,290.725215 C187.375314,290.855529 188.032314,290.991273 188.694744,291.132446 C189.454909,287.489083 190.730901,283.965174 191.208719,280.262083 C192.734479,284.421273 193.853008,288.710777 195.275603,292.902545 C196.155223,293.136025 197.034843,293.364074 197.925322,293.602983 C199.233893,289.101719 200.303554,284.540727 201.47638,280.001455 C200.808521,279.827702 200.146091,279.65395 199.489091,279.485628 C198.41943,283.085554 197.632116,286.761496 196.736207,290.40486 C195.56881,286.169653 194.064769,282.037612 192.908231,277.796975 C191.958025,277.563496 191.013248,277.324587 190.073901,277.096537 M204.707083,280.430405 C204.196686,285.105421 203.072727,289.677273 202.307132,294.314281 C203.045579,294.450025 203.794884,294.591198 204.54962,294.732372 C205.450959,290.073645 206.341438,285.414917 207.063595,280.723612 C206.270851,280.620446 205.488967,280.522711 204.707083,280.430405 M208.860843,281.272017 C208.822835,281.755264 208.735959,282.716331 208.69795,283.194149 C210.066248,283.373331 211.434545,283.552512 212.813702,283.737124 C212.395612,287.722562 211.858066,291.691711 211.358529,295.666289 C212.118694,295.753165 212.884289,295.840041 213.660744,295.926917 C214.116843,291.979488 214.692397,288.042917 215.06162,284.079198 C216.391909,284.166074 217.733058,284.339826 219.074207,284.296388 C219.22624,283.862008 219.530306,282.993248 219.682339,282.558868 C216.093273,281.994174 212.460769,281.744405 208.860843,281.272017 M225.014355,282.656603 C218.395488,283.921736 218.200017,295.465388 224.791736,296.915132 C227.75095,297.767603 231.405174,296.497041 232.594289,293.516107 C233.473909,290.985843 233.539066,288.048347 232.404248,285.594099 C231.003372,283.004107 227.75638,282.091909 225.014355,282.656603 M236.004174,282.716331 C236.362537,287.418496 236.74805,292.126091 237.046686,296.839116 C237.779702,296.790248 238.529008,296.74681 239.278314,296.708802 C239.186008,294.78124 239.093702,292.853678 239.039405,290.926116 C239.571521,290.904397 240.635752,290.866388 241.167868,290.844669 C242.43843,292.631058 243.708992,294.417446 244.963264,296.220124 C245.832025,296.144107 246.706215,296.073521 247.591264,296.008364 C246.141521,294.10795 244.713496,292.191248 243.285471,290.279975 C243.96962,289.601256 244.751504,288.987694 245.27276,288.162372 C246.396719,286.039339 245.099008,282.971529 242.65562,282.575157 C240.445711,282.265661 238.214083,282.591446 236.004174,282.716331 Z" id="Shape"></path>
                    <path d="M178.280479,275.576207 C180.02343,275.185264 182.124744,275.71738 183.07495,277.340876 C183.96543,278.839488 183.52019,280.680174 182.977215,282.227653 C182.401661,283.807711 181.33743,285.414917 179.648777,285.919884 C177.726645,286.289107 175.587322,285.170579 174.821727,283.373331 C174.235314,281.63038 174.914033,279.789694 175.663339,278.215066 C176.249752,277.134545 176.999058,275.896562 178.280479,275.576207 Z" id="Path"></path>
                    <path d="M225.025215,284.774207 C226.22519,284.513579 227.55005,284.47014 228.722876,284.91538 C230.81876,286.126215 231.019661,288.895388 230.731884,291.051 C230.579851,292.679926 229.759959,294.455455 228.087595,294.976711 C226.665,295.259058 224.92205,295.280777 223.868678,294.135099 C222.375496,292.614769 222.299479,290.290835 222.598116,288.308975 C222.842455,286.88638 223.60262,285.322612 225.025215,284.774207 Z" id="Path"></path>
                    <path d="M238.518149,284.339826 C239.957033,284.318107 241.406777,284.448421 242.807653,284.839364 C243.008554,285.458355 243.214884,286.077347 243.426645,286.701769 C243.193165,287.288182 242.965116,287.880025 242.742496,288.471868 C241.428496,288.743355 240.114496,288.982264 238.800496,289.199455 C238.697331,287.575959 238.588736,285.957893 238.518149,284.339826 Z" id="Path"></path>
                </g>
                <g id="#80aeddff" fill="#80AEDD">
                    <path d="M133.550182,1.73209091 C144.31738,0.0434380165 155.258331,-0.00542975207 166.128694,0.320355372 C191.132702,1.67236364 215.843504,8.61158678 237.779702,20.7253636 C244.349702,24.7325207 250.930562,28.7505372 257.082471,33.3929752 C268.555537,42.004562 278.736322,52.2233554 288.260107,62.9199669 C282.662033,63.1968843 277.074818,62.8276612 271.476744,62.8385207 C262.414488,62.6973471 253.363091,62.4747273 244.306264,62.3335537 C241.526231,62.2792562 238.811355,64.494595 238.588736,67.3126364 C238.143496,81.3919835 238.078339,95.4876198 237.643959,109.572397 C230.16176,100.884793 222.315769,92.3112149 212.764835,85.8498099 C195.492793,73.7903306 174.11586,67.8827603 153.102719,69.1967603 C129.347554,70.1523967 105.896455,80.9033058 90.579124,99.250438 C89.8080992,100.184355 89.0099256,101.101983 88.0705785,101.873008 C87.7502231,102.519149 87.3918595,103.149 87.0280661,103.773421 C76.7115372,105.516372 66.2972727,106.607752 55.9264463,107.943471 C51.6912397,108.307264 47.390876,109.29005 43.1502397,108.519025 C40.4353636,107.514521 40.2833306,104.202372 39.8598099,101.780702 C39.6480496,99.1309835 39.0127686,96.557281 38.5295207,93.951 C36.9386033,81.8372231 35.3965537,69.7180165 33.9088017,57.5933802 C47.0542314,40.9457603 63.7398595,27.0890331 82.6571157,17.4675124 C98.5391405,9.3337438 115.85462,4.00172727 133.550182,1.73209091 M162.794826,23.4510992 C162.735099,28.0826777 162.675372,32.7088264 162.664512,37.3349752 C165.314231,37.362124 167.96938,37.492438 170.619099,37.5956033 C170.629959,37.0960661 170.651678,36.091562 170.662537,35.5920248 C168.751264,35.5485868 166.839992,35.521438 164.923289,35.5051488 C164.945008,34.0445455 164.955868,32.5785124 164.972157,31.1179091 C166.774835,31.1016198 168.577512,31.1070496 170.38019,31.1287686 C170.369331,30.6509504 170.353041,29.6898843 170.347612,29.2120661 C168.610091,29.1794876 166.878,29.1577686 165.140479,29.1523388 C165.145909,27.8817769 165.145909,26.6112149 165.145909,25.3406529 C167.046322,25.3840909 168.946736,25.4220992 170.847149,25.4329587 C170.847149,24.7976777 170.847149,24.1623967 170.852579,23.5271157 C168.170281,23.4728182 165.482554,23.4456694 162.794826,23.4510992 M147.444917,24.2329835 C147.792421,28.9242893 148.058479,33.6210248 148.411413,38.3123306 C151.408636,37.9702562 154.82395,38.2851818 157.327066,36.2870331 C160.128818,33.6536033 160.031083,28.7613967 157.67457,25.8836281 C155.068289,22.995 150.833083,24.2601322 147.444917,24.2329835 M135.950132,25.7858926 C133.506744,26.2908595 131.61176,28.4844793 131.497736,30.9821653 C131.313124,34.0119669 132.073289,37.6607603 134.934769,39.2679669 C137.367298,40.3756364 140.500264,40.055281 142.628727,38.4263554 C145.707397,35.8092149 145.18614,30.9930248 143.193421,27.8763471 C141.716529,25.4601074 138.464107,25.0420165 135.950132,25.7858926 M120.719678,30.0373884 C118.710669,31.6880331 118.775826,34.5332231 119.161339,36.8680165 C119.655446,39.398281 121.360388,41.961124 124.010107,42.5638264 C126.35576,43.0959421 128.598248,41.9013967 130.694132,41.0054876 C130.596397,40.5276694 130.411785,39.5666033 130.319479,39.0887851 C128.402777,39.8163719 126.285174,41.2986942 124.200149,40.3159091 C121.55043,38.7467107 120.632802,34.9676033 121.729612,32.2038595 C122.788413,29.9342231 125.595595,30.0862562 127.702339,30.156843 C127.762066,29.4509752 127.827223,28.7451074 127.88695,28.0446694 C125.394694,28.0175207 122.571223,28.120686 120.719678,30.0373884 Z" id="Shape"></path>
                    <path d="M149.937174,25.9542149 C151.908174,25.9433554 154.367851,25.4601074 155.823025,27.1541901 C157.223901,29.2717934 157.45195,32.2907355 156.051074,34.4626364 C154.715355,36.0318347 152.472868,36.0426942 150.594174,36.3087521 C150.322686,32.8608595 150.034909,29.4129669 149.937174,25.9542149 Z" id="Path"></path>
                    <path d="M135.901264,27.9034959 C137.568198,27.0890331 139.95186,27.2030579 141.04324,28.8808512 C142.188917,30.7432562 142.683025,33.0943388 142.150909,35.2390909 C141.607934,37.579314 138.659579,38.4154959 136.612562,37.6499008 C134.657851,36.7974298 134.082298,34.4952149 133.908545,32.5622231 C133.729364,30.8464215 134.066008,28.6039339 135.901264,27.9034959 Z" id="Path"></path>
                    <path d="M10.3436777,100.423264 C14.454,88.7981653 20.1389504,77.7811983 26.7849669,67.4103719 C27.7840413,73.8663471 28.316157,80.3820496 29.2989421,86.8380248 C29.5487107,89.3357107 30.200281,91.8171074 29.9776612,94.3419421 C29.8419174,95.8622727 30.3468843,97.3337355 30.4554793,98.8432066 C31.2102149,103.920025 31.5902975,109.05114 32.5676529,114.08995 C32.9314463,116.28357 34.3214628,118.683521 36.7105537,119.025595 C38.9313223,119.666306 41.2063884,118.835554 43.4543058,118.851843 C55.5626529,117.499835 67.6384215,115.892628 79.7141901,114.290851 C77.4499835,119.541421 75.0120248,124.737694 73.3342314,130.221744 C71.8464793,137.432455 70.0329421,144.637736 69.6094215,152.022198 C68.8275372,160.905273 69.4302397,169.891512 71.2437769,178.617124 C71.6727273,181.712083 72.861843,184.644149 73.4645455,187.69024 C69.1641818,199.907182 64.7497934,212.091545 60.4331405,224.303058 C59.7164132,226.572694 58.8042149,229.227843 56.371686,230.156331 C53.9663058,231.171694 51.376314,230.210628 49.1012479,229.29843 C36.0426942,224.558256 22.886405,220.078711 9.8658595,215.246231 C2.48139669,194.721769 -0.716727273,172.720413 0.390942149,150.941678 C1.3031405,133.745653 4.41438843,116.609355 10.3436777,100.423264 M27.2736446,132.04614 C23.8691901,133.745653 23.608562,137.926562 22.8755455,141.206132 C27.4202479,142.248645 31.9323719,143.410612 36.4933636,144.393397 C36.9983306,141.912 37.9811157,139.414314 37.6173223,136.846041 C36.9820413,132.27419 31.1016198,130.368347 27.2736446,132.04614 M34.207438,146.472992 C33.9956777,148.433132 33.7404793,150.382413 33.441843,152.331694 C29.434686,151.843017 25.4220992,151.33262 21.4366612,150.68105 C21.3552149,151.441215 21.2737686,152.19595 21.1923223,152.961545 C25.7804628,153.738 30.4066116,154.291835 35.0327603,154.742504 C35.4508512,152.027628 35.8580826,149.312752 36.1730083,146.581587 C35.6843306,146.554438 34.6961157,146.50014 34.207438,146.472992 M20.6927851,157.321636 C20.6439174,158.092661 20.5950496,158.869116 20.5461818,159.64557 C25.2157686,159.938777 29.8744959,160.389446 34.5495124,160.579488 C34.5766612,159.830182 34.6038099,159.080876 34.6309587,158.337 C29.9830909,158.049223 25.3352231,157.68 20.6927851,157.321636 M20.2475455,164.179413 C20.2475455,164.945008 20.2475455,165.710603 20.2475455,166.481628 C22.9352727,166.519636 25.6175702,166.411041 28.2998678,166.373033 C29.5595702,166.394752 31.0418926,166.351314 31.9920992,167.339529 C33.3169587,169.136777 32.763124,172.600959 30.178562,172.834438 C26.915281,173.154793 23.6248512,172.926744 20.3507107,173.084207 C20.3561405,173.828083 20.3615702,174.577388 20.367,175.326694 C23.5488347,175.212669 26.7360992,175.353843 29.9179339,175.20724 C31.9649504,175.120364 34.0119669,173.65976 34.4083388,171.580165 C34.7015455,170.010967 34.690686,168.327744 34.077124,166.834562 C33.3875455,165.189347 31.6391653,164.173983 29.8907851,164.141405 C26.6763719,164.016521 23.4619587,164.211992 20.2475455,164.179413 M27.6482975,180.870471 C26.28,178.682281 22.5714793,178.568256 21.550686,181.093091 C20.9751322,183.775388 21.5235372,186.539132 21.8873306,189.22143 C26.5351983,188.651306 31.1884959,188.13005 35.8255041,187.483909 C35.4074132,184.866769 35.5322975,182.054157 34.2888843,179.648777 C32.7794132,176.917612 27.8926364,177.531174 27.6482975,180.870471 Z" id="Shape"></path>
                    <path d="M246.939694,76.4943471 C246.869107,73.2799339 249.806603,70.5704876 252.977579,70.7062314 C267.382711,70.999438 281.787843,71.3523719 296.192975,71.5424132 C306.976463,84.1883058 317.34186,97.1979917 328.315388,109.691851 C313.226107,127.45257 298.071669,145.158992 283.058405,162.984868 C281.961595,160.384017 280.126339,158.222975 278.377959,156.045645 C272.242339,148.628603 265.699488,141.553636 259.390116,134.283198 C258.108694,132.828025 256.414612,131.807231 255.225496,130.259752 C252.190264,126.665256 248.818388,123.309669 246.103512,119.470835 C246.277264,105.152579 246.765942,90.8234628 246.939694,76.4943471 M257.077041,93.4080248 C257.53857,93.9835785 258.005529,94.564562 258.472488,95.1455455 C259.808207,94.037876 261.154785,92.9410661 262.495934,91.8333967 C263.614463,93.0007934 264.651545,94.3419421 266.144727,95.0532397 C269.076793,96.4323967 273.024223,93.250562 271.949132,90.0850165 C271.161818,87.7990909 269.266835,86.1647355 267.789942,84.3294793 C264.276893,87.4298678 260.573802,90.2913471 257.077041,93.4080248 M265.015339,102.600595 C266.780008,104.756207 268.588116,106.87381 270.374504,109.007702 C270.852322,108.546174 271.33557,108.090074 271.818818,107.628545 C270.526537,106.140793 269.255975,104.631322 267.996273,103.110992 C271.085802,100.499281 274.19705,97.914719 277.275719,95.2975785 C276.781612,94.716595 276.287504,94.1356116 275.798826,93.5600579 C272.21519,96.5898595 268.604405,99.5816529 265.015339,102.600595 M270.548256,109.447512 C271.042364,110.039355 271.541901,110.636628 272.046868,111.233901 C273.355438,110.772372 274.664008,110.305413 275.972579,109.838455 C277.161694,111.185033 278.329091,112.55876 279.474769,113.948777 C278.861207,114.936992 278.187917,115.892628 277.748107,116.973149 C277.215992,117.977653 278.470264,118.672661 278.904645,119.465405 C281.380612,115.061876 283.845719,110.647488 286.413992,106.298256 C285.843868,105.635826 285.268314,104.967967 284.69819,104.310967 C280.023174,106.146223 275.239562,107.671983 270.548256,109.447512 M280.191496,120.839132 C280.620446,121.32781 281.054826,121.811058 281.494636,122.299736 C284.502719,120.01924 287.396777,117.575851 290.144231,114.98043 C288.765074,119.199347 287.304471,123.391116 285.974182,127.626322 C286.566025,128.348479 287.152438,129.065207 287.744281,129.787364 C291.360496,126.752132 294.993,123.73319 298.603785,120.697959 C298.120537,120.176702 297.637289,119.655446 297.164901,119.13962 C294.336,121.53957 291.48538,123.912372 288.699917,126.35576 C290.084504,122.20743 291.349636,118.010231 292.886256,113.910769 C292.256405,113.199471 291.631983,112.488174 291.007562,111.782306 C287.391347,114.790388 283.769702,117.787612 280.191496,120.839132 Z" id="Shape"></path>
                    <path d="M263.951107,90.6171322 C265.237959,89.4931736 266.546529,88.3909339 267.849669,87.2886942 C268.539248,88.2171818 269.418868,89.0696529 269.777231,90.1990413 C270.23876,91.9039835 268.256901,93.7392397 266.617116,92.9953636 C265.552884,92.4143802 264.792719,91.4478843 263.951107,90.6171322 Z" id="Path"></path>
                    <path d="M277.965298,109.05114 C279.996025,108.312694 282.005033,107.514521 283.986893,106.634901 C282.819496,108.481017 281.690107,110.343421 280.566149,112.211256 C279.697388,111.157884 278.828628,110.104512 277.965298,109.05114 Z" id="Path"></path>
                    <path d="M25.1831901,139.305719 C25.7153058,137.372727 26.0248017,134.750157 28.2835785,134.066008 C30.5857934,133.485025 33.4961405,134.028 35.0219008,135.977281 C36.3141818,137.655074 35.586595,139.848694 35.2119421,141.705669 C31.8292066,141.070388 28.4899091,140.250496 25.1831901,139.305719 Z" id="Path"></path>
                    <path d="M328.532579,220.74114 C343.909636,201.889041 359.248686,183.004364 374.642033,164.163124 C388.06438,180.02343 401.63876,195.753421 414.871066,211.77119 C422.44557,220.437074 430.888835,228.41338 440.342033,235.010529 C424.438289,236.237653 408.496537,236.693752 392.581934,237.725405 C390.209132,237.986033 387.64086,237.649388 385.474388,238.838504 C383.421942,240.043909 382.395719,242.568744 382.699785,244.892678 C383.497959,257.218215 384.100661,269.560041 384.692504,281.901868 C376.987686,275.391595 369.505488,268.609835 362.549975,261.301388 C350.257017,248.606628 339.783025,234.33181 328.532579,220.74114 Z" id="Path"></path>
                    <path d="M29.7278926,180.653281 C30.6889587,180.349215 32.171281,180.094017 32.7305455,181.179967 C33.4364132,182.483107 33.4689917,184.008868 33.7079008,185.442322 C32.2038595,185.648653 30.6998182,185.854983 29.1903471,186.066744 C29.0926116,184.296645 28.2347107,182.081306 29.7278926,180.653281 Z" id="Path"></path>
                    <path d="M23.3044959,182.455959 C23.9126281,181.565479 25.1071736,181.228835 26.0790992,181.722942 C27.3225124,182.890339 27.1107521,184.763603 27.4311074,186.305653 C26.1225372,186.435967 24.8139669,186.560851 23.5108264,186.691165 C23.3587934,185.290289 23.038438,183.862264 23.3044959,182.455959 Z" id="Path"></path>
                </g>
                <g id="#fefefdff" transform="translate(20.090083, 23.347934)" fill="#FEFEFD">
                    <path d="M142.704744,0.103165289 C145.392471,0.0977355372 148.080198,0.124884298 150.762496,0.179181818 C150.757066,0.81446281 150.757066,1.4497438 150.757066,2.08502479 C148.856653,2.07416529 146.95624,2.03615702 145.055826,1.99271901 C145.055826,3.26328099 145.055826,4.53384298 145.050397,5.80440496 C146.787917,5.80983471 148.520008,5.83155372 150.257529,5.86413223 C150.262959,6.34195041 150.279248,7.30301653 150.290107,7.78083471 C148.48743,7.7591157 146.684752,7.75368595 144.882074,7.76997521 C144.865785,9.23057851 144.854926,10.6966116 144.833207,12.1572149 C146.749909,12.1735041 148.661182,12.2006529 150.572455,12.2440909 C150.561595,12.7436281 150.539876,13.7481322 150.529017,14.2476694 C147.879298,14.1445041 145.224149,14.0141901 142.57443,13.9870413 C142.585289,9.36089256 142.645017,4.7347438 142.704744,0.103165289 Z" id="Path"></path>
                    <path d="M127.354835,0.885049587 C130.743,0.912198347 134.978207,-0.352933884 137.584488,2.53569421 C139.941,5.41346281 140.038736,10.3056694 137.236983,12.9390992 C134.733868,14.9372479 131.318554,14.6223223 128.321331,14.9643967 C127.968397,10.2730909 127.702339,5.57635537 127.354835,0.885049587 M129.847091,2.60628099 C129.944826,6.06503306 130.232603,9.51292562 130.504091,12.9608182 C132.382785,12.6947603 134.625273,12.6839008 135.960992,11.1147025 C137.361868,8.94280165 137.133818,5.9238595 135.732942,3.8062562 C134.277769,2.11217355 131.818091,2.59542149 129.847091,2.60628099 Z" id="Shape"></path>
                    <path d="M115.86005,2.43795868 C118.374025,1.69408264 121.626446,2.11217355 123.103339,4.52841322 C125.096058,7.64509091 125.617314,12.461281 122.538645,15.0784215 C120.410182,16.7073471 117.277215,17.0277025 114.844686,15.9200331 C111.983207,14.3128264 111.223041,10.6640331 111.407653,7.6342314 C111.521678,5.13654545 113.416661,2.94292562 115.86005,2.43795868 M115.811182,4.55556198 C113.975926,5.256 113.639281,7.4984876 113.818463,9.21428926 C113.992215,11.147281 114.567769,13.4494959 116.522479,14.3019669 C118.569496,15.067562 121.517851,14.2313802 122.060826,11.891157 C122.592942,9.74640496 122.098835,7.39532231 120.953157,5.53291736 C119.861777,3.85512397 117.478116,3.74109917 115.811182,4.55556198 Z" id="Shape"></path>
                    <path d="M462.96238,4.46868595 C465.612099,4.41981818 468.549595,3.78453719 470.960405,5.22885124 C472.61105,6.39624793 472.545893,8.77447934 472.062645,10.5228595 C470.85724,12.9228099 467.908884,13.205157 465.530653,13.2648843 C465.568661,14.9535372 465.606669,16.6476198 465.666397,18.3362727 C464.889942,18.3579917 464.129777,18.3797107 463.369612,18.4014298 C463.201289,13.7589917 463.016678,9.11655372 462.96238,4.46868595 M465.356901,6.23335537 C465.38405,7.92200826 465.422058,9.61609091 465.476355,11.3047438 C466.746917,11.1309917 468.245529,11.3590413 469.293471,10.4631322 C470.167661,9.75183471 470.18395,8.44326446 469.847306,7.46047934 C468.891669,5.94557851 466.871802,6.31480165 465.356901,6.23335537 Z" id="Shape"></path>
                    <path d="M475.950347,4.36009091 C476.715942,4.40895868 477.492397,4.45782645 478.274281,4.50669421 C478.035372,8.50299174 477.812752,12.4938595 477.64443,16.490157 C479.626289,16.5824628 481.608149,16.6747686 483.595438,16.7670744 C483.579149,17.2557521 483.54657,18.2331074 483.530281,18.7217851 C480.766537,18.6566281 478.013653,18.482876 475.266198,18.2819752 C475.467099,13.6395372 475.700579,9.00252893 475.950347,4.36009091 Z" id="Path"></path>
                    <path d="M100.629595,6.68945455 C102.48114,4.77275207 105.304612,4.66958678 107.796868,4.69673554 C107.73714,5.39717355 107.671983,6.10304132 107.612256,6.80890909 C105.505512,6.73832231 102.698331,6.58628926 101.639529,8.85592562 C100.542719,11.6196694 101.460347,15.3987769 104.110066,16.9679752 C106.195091,17.9507603 108.312694,16.468438 110.229397,15.7408512 C110.321702,16.2186694 110.506314,17.1797355 110.60405,17.6575537 C108.508165,18.5534628 106.265678,19.7480083 103.920025,19.2158926 C101.270306,18.6131901 99.5653636,16.0503471 99.0712562,13.5200826 C98.6857438,11.1852893 98.6205868,8.34009917 100.629595,6.68945455 Z" id="Path"></path>
                    <path d="M451.261264,5.28314876 C453.905554,5.1311157 456.538983,4.83247934 459.183273,4.59357025 C459.199562,5.08767769 459.23214,6.07589256 459.24843,6.57 C457.380595,6.74375207 455.51276,6.90121488 453.644926,7.01523967 C453.75895,8.30752066 453.878405,9.6052314 454.003289,10.9029421 C455.800537,10.7074711 457.603215,10.5228595 459.411322,10.3708264 C459.443901,10.8269256 459.514488,11.7336942 459.547066,12.1897934 C457.771537,12.374405 456.001438,12.5861653 454.231339,12.7979256 C454.383372,14.2748182 454.551694,15.7517107 454.720017,17.2286033 C456.571562,17.0059835 458.428537,16.7833636 460.285512,16.5716033 C460.33438,17.0657107 460.426686,18.0484959 460.475554,18.5426033 C457.852983,18.7706529 455.235843,19.0475702 452.629562,19.3896446 C452.206041,14.6874793 451.451306,10.0124628 451.261264,5.28314876 Z" id="Path"></path>
                    <path d="M489.959107,5.67409091 C493.054066,4.52298347 497.256694,5.69038017 498.635851,8.87764463 C499.602347,11.7119752 499.298281,15.111 497.57162,17.5923967 C494.601545,21.6538512 487.075909,20.1063719 486.049686,15.1435785 C485.327529,11.6793967 486.418909,7.17813223 489.959107,5.67409091 M490.55638,7.80255372 C488.444207,9.45319835 487.993537,12.504719 488.471355,14.9969752 C489.090347,17.608686 492.435074,18.6294793 494.617835,17.3317686 C496.773446,15.7137025 496.871182,12.6839008 496.594264,10.2459421 C496.203322,7.59079339 492.673983,6.51570248 490.55638,7.80255372 Z" id="Shape"></path>
                    <path d="M436.02538,7.86228099 C439.049752,7.41704132 442.323893,6.19534711 445.283107,7.57993388 C449.388,9.95273554 450.202463,17.016843 445.999835,19.7045702 C443.730198,20.9914215 441.06419,21.1651736 438.566504,21.7190083 C437.79005,17.0874298 436.89414,12.4775702 436.02538,7.86228099 M438.680529,9.27944628 C439.212645,12.6676116 439.994529,16.0123388 440.41262,19.4222231 C442.475926,18.9824132 445.185372,18.6566281 446.037843,16.3707025 C446.591678,14.1553636 446.276752,11.5002149 444.620678,9.81156198 C442.959174,8.37267769 440.62981,9.0731157 438.680529,9.27944628 Z" id="Shape"></path>
                    <path d="M502.024017,6.8414876 C502.83305,7.02066942 503.652942,7.20528099 504.478264,7.38989256 C505.053818,9.7301157 505.629372,12.0649091 506.275512,14.388843 C507.784983,12.526438 509.354182,10.7183306 510.901661,8.88850413 C511.678116,9.01881818 512.46543,9.14913223 513.258174,9.28487603 C511.466355,11.8422893 509.16957,13.9761818 507.252868,16.4304298 C506.308091,18.1842397 506.166917,20.2421157 505.651091,22.1479587 C504.890926,21.9524876 504.14162,21.7624463 503.397744,21.572405 C503.794116,19.8131653 504.380529,18.0919339 504.543421,16.2892562 C503.832124,13.1128512 502.82219,10.0016033 502.024017,6.8414876 Z" id="Path"></path>
                    <path d="M236.986959,70.0600909 C240.483719,66.9434132 244.18681,64.0819339 247.69986,60.9815455 C249.176752,62.8168017 251.071736,64.451157 251.85905,66.7370826 C252.93414,69.9026281 248.986711,73.0844628 246.054645,71.7053058 C244.561463,70.9940083 243.52438,69.6528595 242.405851,68.4854628 C241.064702,69.5931322 239.718124,70.6899421 238.382405,71.7976116 C237.915446,71.2166281 237.448488,70.6356446 236.986959,70.0600909 M243.861025,67.2691983 C244.702636,68.0999504 245.462802,69.0664463 246.527033,69.6474298 C248.166818,70.3913058 250.148678,68.5560496 249.687149,66.8511074 C249.328785,65.721719 248.449165,64.8692479 247.759587,63.9407603 C246.456446,65.043 245.147876,66.1452397 243.861025,67.2691983 Z" id="Shape"></path>
                    <path d="M244.925256,79.2526612 C248.514322,76.233719 252.125107,73.2419256 255.708744,70.212124 C256.197421,70.7876777 256.691529,71.3686612 257.185636,71.9496446 C254.106967,74.5667851 250.995719,77.1513471 247.90619,79.7630579 C249.165893,81.2833884 250.436455,82.7928595 251.728736,84.2806116 C251.245488,84.7421405 250.76224,85.1982397 250.284421,85.6597686 C248.498033,83.525876 246.689926,81.4082727 244.925256,79.2526612 Z" id="Path"></path>
                    <path d="M250.458174,86.0995785 C255.149479,84.3240496 259.933091,82.7982893 264.608107,80.9630331 C265.178231,81.6200331 265.753785,82.2878926 266.323909,82.9503223 C263.755636,87.2995537 261.290529,91.7139421 258.814562,96.1174711 C258.380182,95.3247273 257.125909,94.629719 257.658025,93.6252149 C258.097835,92.5446942 258.771124,91.5890579 259.384686,90.600843 C258.239008,89.2108264 257.071612,87.8370992 255.882496,86.4905207 C254.573926,86.9574793 253.265355,87.424438 251.956785,87.8859669 C251.451818,87.2886942 250.952281,86.6914215 250.458174,86.0995785 M257.875215,85.7032066 C258.738545,86.7565785 259.607306,87.8099504 260.476066,88.8633223 C261.600025,86.9954876 262.729413,85.1330826 263.89681,83.2869669 C261.91495,84.1665868 259.905942,84.9647603 257.875215,85.7032066 Z" id="Shape"></path>
                    <path d="M260.101413,97.4911983 C263.67962,94.4396777 267.301264,91.4424545 270.917479,88.4343719 C271.541901,89.1402397 272.166322,89.8515372 272.796174,90.5628347 C271.259554,94.6622975 269.994421,98.8594959 268.609835,103.007826 C271.395298,100.564438 274.245917,98.1916364 277.074818,95.791686 C277.547207,96.3075124 278.030455,96.8287686 278.513702,97.3500248 C274.902917,100.385256 271.270413,103.404198 267.654198,106.43943 C267.062355,105.717273 266.475942,105.000545 265.884099,104.278388 C267.214388,100.043182 268.674992,95.8514132 270.054149,91.6324959 C267.306694,94.2279174 264.412636,96.6713058 261.404554,98.9518017 C260.964744,98.463124 260.530364,97.979876 260.101413,97.4911983 Z" id="Path"></path>
                    <path d="M335.146017,101.525504 C336.899826,99.5545041 338.626488,97.5509256 340.396587,95.5907851 C340.77124,95.8894215 341.520545,96.4975537 341.900628,96.8016198 C340.646355,98.2187851 339.402942,99.6468099 338.159529,101.074835 C339.104306,101.921876 340.054512,102.763488 341.004719,103.610529 C342.155826,102.291099 343.312364,100.977099 344.48519,99.6739587 C344.963008,100.09205 345.440826,100.51014 345.929504,100.928231 C344.767537,102.225942 343.62186,103.539942 342.487041,104.853942 C343.567562,105.847587 344.653512,106.824942 345.766612,107.786008 C347.004595,106.368843 348.264298,104.973397 349.53486,103.57795 C349.990959,104.001471 350.447058,104.424992 350.914017,104.848512 C349.230793,106.884669 347.433545,108.817661 345.728603,110.837529 C342.182975,107.75343 338.713364,104.582455 335.146017,101.525504 Z" id="Path"></path>
                    <path d="M329.216727,109.110868 C329.59138,106.65119 331.882736,105.136289 333.880884,103.979752 C334.174091,104.566165 334.478157,105.152579 334.787653,105.744421 C333.430215,106.748926 331.182298,107.606826 331.35062,109.642983 C331.318041,110.690926 332.474579,111.353355 333.424785,111.109017 C335.29805,110.696355 336.850959,109.235752 338.832818,109.262901 C341.004719,109.132587 342.905132,111.385934 342.465322,113.519826 C342.123248,116.082669 339.842752,117.776752 337.850033,119.13419 C337.285339,118.683521 336.726074,118.238281 336.17224,117.798471 C337.437372,116.929711 338.79481,116.131537 339.793884,114.942421 C340.559479,114.013934 340.651785,112.287273 339.473529,111.635702 C337.068149,111.087298 335.232893,113.552405 332.843802,113.367793 C330.68276,113.470959 328.71719,111.26105 329.216727,109.110868 Z" id="Path"></path>
                    <path d="M7.18356198,108.698207 C11.0115372,107.020413 16.8919587,108.926256 17.5272397,113.498107 C17.8910331,116.06638 16.9082479,118.564066 16.403281,121.045463 C11.8422893,120.062678 7.33016529,118.900711 2.78546281,117.858198 C3.51847934,114.578628 3.77910744,110.397719 7.18356198,108.698207 M5.09310744,115.957785 C8.39982645,116.902562 11.739124,117.722455 15.1218595,118.357736 C15.4965124,116.50076 16.2240992,114.30714 14.9318182,112.629347 C13.4060579,110.680066 10.4957107,110.137091 8.19349587,110.718074 C5.93471901,111.402223 5.62522314,114.024793 5.09310744,115.957785 Z" id="Shape"></path>
                    <path d="M321.642223,116.582207 C322.201488,115.984934 322.760752,115.387661 323.325446,114.790388 C328.005893,116.473612 332.621182,118.341446 337.285339,120.084397 C336.780372,120.719678 336.269975,121.360388 335.765008,122.001099 C334.461868,121.463554 333.164157,120.936868 331.855587,120.426471 C330.726198,121.76219 329.575091,123.08162 328.418554,124.40105 C329.042975,125.633603 329.678256,126.855298 330.318967,128.082421 C329.81943,128.668835 329.325322,129.266107 328.831215,129.85795 C326.31181,125.503289 324.058463,120.996595 321.642223,116.582207 M324.134479,117.130612 C325.215,118.960438 326.279231,120.795694 327.348893,122.63095 C328.212223,121.615587 329.086413,120.594793 329.955174,119.574 C328.027612,118.726959 326.078331,117.923355 324.134479,117.130612 Z" id="Shape"></path>
                    <path d="M312.183595,127.658901 C313.986273,125.693331 315.702074,123.651744 317.515612,121.697033 C317.863116,121.99024 318.552694,122.587512 318.900198,122.886149 C317.689364,124.357612 316.478529,125.834504 315.191678,127.24624 C316.158174,128.071562 317.135529,128.896884 318.112884,129.716777 C319.253132,128.402777 320.39881,127.099636 321.549917,125.796496 C322.038595,126.209157 322.527273,126.621818 323.02681,127.034479 C321.843124,128.353909 320.675727,129.684198 319.540909,131.041636 C320.60514,132.008132 321.696521,132.958339 322.79876,133.892256 C324.085612,132.534818 325.334455,131.144802 326.583298,129.749355 C327.050256,130.151157 327.517215,130.552959 327.989603,130.96019 C326.333529,133.012636 324.509132,134.923909 322.793331,136.927488 C319.204264,133.897686 315.729223,130.73757 312.183595,127.658901 Z" id="Path"></path>
                    <path d="M14.1173554,123.125058 C14.6060331,123.152207 15.5942479,123.206504 16.0829256,123.233653 C15.768,125.964818 15.3607686,128.679694 14.9426777,131.39457 C10.3165289,130.943901 5.69038017,130.390066 1.10223967,129.613612 C1.18368595,128.848017 1.26513223,128.093281 1.34657851,127.333116 C5.33201653,127.984686 9.34460331,128.495083 13.3517603,128.98376 C13.6503967,127.034479 13.905595,125.085198 14.1173554,123.125058 Z" id="Path"></path>
                    <path d="M610.586479,127.490579 C612.828967,127.02362 615.315793,127.067058 617.35738,128.229025 C621.505711,130.51495 621.331959,137.709372 616.961008,139.674942 C614.132107,140.804331 610.619058,140.82605 608.045355,139.077669 C604.049058,135.977281 605.335909,128.381058 610.586479,127.490579 M610.510463,130.064281 C607.28519,130.710421 606.698777,135.602628 609.408223,137.220694 C611.520397,138.274066 614.115818,138.230628 616.298579,137.367298 C618.562785,136.384512 618.861421,133.094083 617.514843,131.269686 C615.723025,129.467008 612.812678,129.331264 610.510463,130.064281 Z" id="Shape"></path>
                    <path d="M0.602702479,133.973702 C5.2451405,134.332066 9.89300826,134.701289 14.540876,134.989066 C14.5137273,135.732942 14.4865785,136.482248 14.4594298,137.231554 C9.78441322,137.041512 5.12568595,136.590843 0.456099174,136.297636 C0.504966942,135.521182 0.553834711,134.744727 0.602702479,133.973702 Z" id="Path"></path>
                    <path d="M305.043471,135.694934 C305.51586,135.086802 305.993678,134.478669 306.471496,133.875967 C309.571884,136.493107 312.433364,139.403455 315.696645,141.819694 C316.950917,140.326512 318.248628,138.865909 319.535479,137.405306 C320.002438,137.883124 320.474826,138.366372 320.958074,138.84962 C319.095669,140.82605 317.33643,142.900215 315.539182,144.936372 C312.042421,141.852273 308.523942,138.795322 305.043471,135.694934 Z" id="Path"></path>
                    <path d="M297.783893,143.844992 C299.505124,141.841413 301.258934,139.864983 303.018174,137.899413 C303.479702,138.322934 303.941231,138.751884 304.41362,139.180835 C303.202785,140.59257 301.99195,141.993446 300.770256,143.394322 C301.704174,144.252223 302.632661,145.115554 303.566579,145.984314 C304.755694,144.616017 305.961099,143.253149 307.188223,141.912 C307.606314,142.378959 308.035264,142.845917 308.464215,143.318306 C307.323967,144.616017 306.189149,145.924587 305.054331,147.222298 C306.15657,148.194223 307.24795,149.177008 308.339331,150.170653 C309.555595,148.720909 310.853306,147.330893 312.151017,145.951736 C312.628835,146.369826 313.106653,146.793347 313.595331,147.222298 C311.798083,149.160719 310.055132,151.142579 308.323041,153.140727 C304.771983,150.083777 301.253504,146.994248 297.783893,143.844992 Z" id="Path"></path>
                    <path d="M0.15746281,140.831479 C3.37187603,140.864058 6.58628926,140.668587 9.80070248,140.793471 C11.5490826,140.82605 13.2974628,141.841413 13.9870413,143.486628 C14.6006033,144.97981 14.6114628,146.663033 14.3182562,148.232231 C13.9218843,150.311826 11.8748678,151.77243 9.82785124,151.859306 C6.64601653,152.005909 3.45875207,151.864736 0.276917355,151.97876 C0.271487603,151.229455 0.266057851,150.480149 0.260628099,149.736273 C3.5347686,149.57881 6.82519835,149.80686 10.0884793,149.486504 C12.6730413,149.253025 13.226876,145.788843 11.9020165,143.991595 C10.9518099,143.00338 9.4694876,143.046818 8.20978512,143.025099 C5.5274876,143.063107 2.84519008,143.171702 0.15746281,143.133694 C0.15746281,142.362669 0.15746281,141.597074 0.15746281,140.831479 Z" id="Path"></path>
                    <path d="M605.53681,145.577083 C605.580248,144.778909 605.650835,143.986165 605.715992,143.193421 C610.401868,143.785264 615.131182,143.997025 619.827917,144.567149 C619.436975,147.146281 619.648736,150.02405 618.095826,152.266537 C616.135686,154.346132 611.916769,153.634835 610.988281,150.838512 C610.36386,149.285603 610.646207,147.580661 610.700504,145.962595 C608.973843,145.84857 607.252612,145.712826 605.53681,145.577083 M612.595488,146.206934 C612.671504,147.651248 612.128529,149.481074 613.388231,150.572455 C614.333008,151.153438 615.60357,151.240314 616.564636,150.610463 C617.59086,149.546231 617.427967,147.928165 617.688595,146.576157 C615.989083,146.451273 614.28957,146.326388 612.595488,146.206934 Z" id="Shape"></path>
                    <path d="M289.51438,153.276471 C291.463661,151.365198 292.973132,148.422273 295.899769,147.971603 C298.875273,147.710975 300.737678,151.012264 299.923215,153.651124 C302.274298,154.014917 304.62538,154.40586 306.987322,154.688207 C306.422628,155.366926 305.857934,156.045645 305.298669,156.724364 C303.159347,156.327992 301.036314,155.899041 298.913281,155.453802 C298.413744,156.040215 297.914207,156.626628 297.420099,157.218471 C298.810116,158.429306 300.194702,159.64557 301.563,160.883554 C301.063463,161.469967 300.563926,162.05638 300.069818,162.648223 C296.573058,159.498967 292.983992,156.452876 289.51438,153.276471 M292.506174,152.928967 C293.66814,153.933471 294.840967,154.932545 296.013793,155.93705 C296.779388,154.883678 297.914207,153.938901 298.093388,152.581463 C298.169405,151.267463 296.784818,150.68105 295.954066,149.964322 C294.580339,150.67019 293.429231,151.701843 292.506174,152.928967 Z" id="Shape"></path>
                    <path d="M7.55821488,157.522537 C7.80255372,154.18324 12.6893306,153.569678 14.1988017,156.300843 C15.4422149,158.706223 15.3173306,161.518835 15.7354215,164.135975 C11.0984132,164.782116 6.4451157,165.303372 1.79724793,165.873496 C1.43345455,163.191198 0.885049587,160.427455 1.46060331,157.745157 C2.48139669,155.220322 6.18991736,155.334347 7.55821488,157.522537 M9.63780992,157.305347 C8.1446281,158.733372 9.00252893,160.948711 9.10026446,162.71881 C10.6097355,162.50705 12.1137769,162.300719 13.6178182,162.094388 C13.3789091,160.660934 13.3463306,159.135174 12.6404628,157.832033 C12.0811983,156.746083 10.598876,157.001281 9.63780992,157.305347 M3.21441322,159.108025 C2.94835537,160.514331 3.26871074,161.942355 3.4207438,163.343231 C4.7238843,163.212917 6.03245455,163.088033 7.34102479,162.957719 C7.02066942,161.415669 7.23242975,159.542405 5.98901653,158.375008 C5.01709091,157.880901 3.82254545,158.217545 3.21441322,159.108025 Z" id="Shape"></path>
                    <path d="M602.854512,162.843694 C603.310612,160.161397 603.842727,157.495388 604.461719,154.845669 C609.04443,155.768727 613.616281,156.773231 618.24786,157.46824 C617.79176,160.117959 617.254215,162.756818 616.69495,165.384818 C616.227992,165.314231 615.288645,165.167628 614.821686,165.097041 C615.185479,163.207488 615.554702,161.317934 615.940215,159.43924 C614.658793,159.200331 613.371942,158.955992 612.09595,158.722512 C611.770165,160.438314 611.466099,162.159545 611.140314,163.869917 C610.515893,163.772182 609.902331,163.674446 609.294198,163.58214 C609.527678,161.83376 609.842603,160.09624 610.190107,158.369579 C608.734934,158.065512 607.29062,157.761446 605.840876,157.46281 C605.493372,159.325215 605.281612,161.225628 604.673479,163.028306 C604.21738,162.979438 603.310612,162.887132 602.854512,162.843694 Z" id="Path"></path>
                    <path d="M602.213802,165.57486 C606.731355,166.856281 611.270628,168.105124 615.739314,169.571157 C615.060595,171.808215 614.642504,174.208165 613.312215,176.173736 C612.144818,177.732074 609.858893,177.840669 608.278835,176.890463 C607.008273,176.347488 606.763934,174.854306 606.237248,173.735777 C603.973041,174.267893 601.735983,174.892314 599.536934,175.63076 C603.11514,179.024355 606.85081,182.255058 610.423587,185.664942 C610.092372,186.425107 609.772017,187.190702 609.446231,187.956298 C604.467149,187.67395 599.477207,187.663091 594.492694,187.511058 C594.742463,186.772612 594.992231,186.039595 595.258289,185.306579 C596.680884,185.328298 598.09805,185.360876 599.531504,185.393455 C600.226512,183.74281 600.861793,182.070446 601.459066,180.376364 C600.443702,179.496744 599.433769,178.617124 598.434694,177.737504 C598.988529,176.211744 599.542364,174.685983 600.05276,173.143934 C601.926025,172.590099 603.853587,172.237165 605.726851,171.683331 C606.731355,171.46614 606.649909,170.163 607.089719,169.424554 C605.287041,168.816421 603.478934,168.246298 601.638248,167.779339 C601.82286,167.046322 602.007471,166.307876 602.213802,165.57486 M608.789231,169.891512 C608.512314,170.982893 608.148521,172.068843 608.121372,173.203661 C608.278835,174.930322 610.977421,175.85338 611.987355,174.32762 C612.622636,173.371983 612.932132,172.248025 613.350223,171.189223 C611.835322,170.722264 610.314992,170.287884 608.789231,169.891512 M601.58938,185.534628 C603.750421,185.730099 605.911463,185.860413 608.077934,186.007017 C606.367562,184.698446 604.733207,183.29757 603.12057,181.869545 C602.610174,183.09124 602.099777,184.312934 601.58938,185.534628 Z" id="Shape"></path>
                    <path d="M592.364231,191.143562 C596.061893,192.810496 599.553223,194.890091 603.229165,196.611322 C603.869876,195.427636 604.521446,194.24938 605.173017,193.071124 C605.607397,193.272025 606.476157,193.673826 606.910537,193.874727 C605.30876,197.013124 603.625537,200.108083 602.072628,203.268198 C601.475355,202.991281 600.883512,202.719793 600.302529,202.453736 C600.905231,201.188603 601.529653,199.934331 602.164934,198.685488 C598.575868,196.920818 595.084537,194.971537 591.495471,193.206868 C591.777818,192.517289 592.065595,191.827711 592.364231,191.143562 Z" id="Path"></path>
                    <path d="M584.252182,205.184901 C585.642198,202.915264 587.086512,200.678207 588.487388,198.414 C592.413099,201.025711 596.463694,203.45824 600.432843,206.015653 C598.96681,208.236421 597.549645,210.478909 596.148769,212.737686 C595.594934,212.379322 595.051959,212.026388 594.519843,211.673455 C595.518917,210.093397 596.501702,208.507909 597.473628,206.911562 C596.425686,206.216554 595.377744,205.521545 594.346091,204.826537 C593.352446,206.319719 592.375091,207.82919 591.419455,209.349521 C591.012223,209.110612 590.20319,208.627364 589.801388,208.388455 C590.740736,206.851835 591.680083,205.309785 592.657438,203.789455 C591.397736,203.00757 590.138033,202.236545 588.88376,201.47638 C587.879256,203.072727 586.869322,204.663645 585.859388,206.254562 C585.316413,205.896198 584.778868,205.537835 584.252182,205.184901 Z" id="Path"></path>
                    <path d="M394.015388,253.021017 C396.236157,248.910694 398.37005,244.751504 400.634256,240.662901 C401.546455,241.10814 402.464083,241.55881 403.38714,242.00405 C403.050496,246.043785 402.268612,250.018364 401.63876,254.014661 C404.587116,251.283496 407.600628,248.622917 410.543554,245.875463 C411.51005,246.402149 412.487405,246.923405 413.47019,247.433802 C411.200554,251.533264 409.061231,255.708744 406.851322,259.840785 C406.221471,259.50957 405.59705,259.178355 404.972628,258.85257 C406.617843,255.258074 408.64314,251.85905 410.500116,248.378579 C407.459455,251.240058 404.326488,254.003802 401.253248,256.821843 C400.612537,256.528636 399.977256,256.23 399.347405,255.936793 C400.020694,251.84276 400.862306,247.765017 401.139223,243.616686 C399.656901,247.24919 397.588165,250.588488 395.850645,254.096107 C395.231653,253.732314 394.623521,253.37395 394.015388,253.021017 Z" id="Path"></path>
                    <path d="M109.50724,247.591264 C114.301711,248.221116 119.009306,249.323355 123.776628,250.132388 C123.602876,251.250917 123.429124,252.369446 123.271661,253.487975 C121.561289,253.189339 119.856347,252.852694 118.145975,252.543198 C117.016587,257.712322 116.321579,262.957463 115.235628,268.137446 C113.894479,267.898537 112.553331,267.654198 111.217612,267.415289 C112.080942,262.224446 113.042008,257.049893 113.992215,251.875339 C112.281843,251.560413 110.576901,251.218339 108.871959,250.881694 C109.083719,249.779455 109.295479,248.682645 109.50724,247.591264 Z" id="Path"></path>
                    <path d="M152.369702,250.648215 C157.191322,249.985785 162.023802,249.393942 166.812843,248.519752 C166.959446,249.698008 167.111479,250.881694 167.252653,252.06538 C165.531421,252.239132 163.81562,252.467182 162.110678,252.754959 C162.881702,257.98924 163.826479,263.207231 164.418322,268.468661 C163.066314,268.685851 161.714306,268.903041 160.362298,269.125661 C159.66186,263.864231 158.793099,258.63538 158.032934,253.38481 C156.333421,253.645438 154.628479,253.906066 152.923537,254.117826 C152.733496,252.95586 152.548884,251.804752 152.369702,250.648215 Z" id="Path"></path>
                    <path d="M125.943099,250.371298 C129.662479,250.507041 133.38186,250.707942 137.08495,251.071736 C137.003504,252.195694 136.927488,253.330512 136.856901,254.459901 C134.484099,254.335017 132.111298,254.193843 129.733066,254.166694 C129.678769,255.502413 129.613612,256.838132 129.548455,258.179281 C131.725785,258.293306 133.892256,258.483347 136.064157,258.684248 C136.00986,259.781058 135.955562,260.883298 135.906694,261.990967 C133.740223,261.844364 131.579182,261.648893 129.41814,261.47514 C129.244388,263.114926 129.086926,264.76557 129.005479,266.421645 C131.334843,266.611686 133.664207,266.812587 135.999,266.975479 C135.944702,268.056 135.895835,269.136521 135.846967,270.227901 C132.111298,270.184463 128.402777,269.701215 124.667107,269.58719 C125.106917,263.185512 125.459851,256.772975 125.943099,250.371298 Z" id="Path"></path>
                    <path d="M141.863132,251.522405 C144.811488,249.790314 148.525438,250.431025 151.533521,251.696157 C151.137149,252.765818 150.746207,253.846339 150.366124,254.932289 C148.210512,254.193843 145.902868,253.672587 143.687529,254.47076 C143.573504,255.377529 143.095686,256.550355 144.018744,257.212785 C145.794273,258.657099 148.194223,259.031752 149.991471,260.465207 C153.015843,262.501364 152.695488,267.779083 149.415917,269.402579 C146.386116,270.841463 142.829628,270.483099 139.696661,269.58176 C139.636934,268.256901 139.577207,266.932041 139.50119,265.612612 C141.797975,266.421645 144.290231,267.518455 146.749909,266.780008 C148.04219,266.340198 148.552587,264.483223 147.417769,263.598174 C145.490207,262.14843 142.981661,261.681471 141.140975,260.101413 C138.61614,257.907793 138.795322,253.145901 141.863132,251.522405 Z" id="Path"></path>
                    <path d="M416.603157,250.458174 C420.539727,248.823818 426.121512,251.685298 425.980339,256.262579 C425.795727,259.73219 423.98762,263.809934 420.25738,264.591818 C416.614017,265.140223 412.101893,262.479645 412.215917,258.450769 C412.308223,255.35581 413.785116,251.983934 416.603157,250.458174 M418.275521,252.228273 C416.994099,252.548628 416.244793,253.786612 415.65838,254.867132 C414.909074,256.44176 414.230355,258.282446 414.816769,260.025397 C415.582364,261.822645 417.721686,262.941174 419.643818,262.57195 C421.332471,262.066983 422.396702,260.459777 422.972256,258.879719 C423.515231,257.33224 423.960471,255.491554 423.069992,253.992942 C422.119785,252.369446 420.018471,251.837331 418.275521,252.228273 Z" id="Shape"></path>
                    <path d="M430.068942,253.748603 C431.008289,253.976653 431.953066,254.215562 432.903273,254.449041 C434.05981,258.689678 435.563851,262.821719 436.731248,267.056926 C437.627157,263.413562 438.414471,259.73762 439.484132,256.137694 C440.141132,256.306017 440.803562,256.479769 441.471421,256.653521 C440.298595,261.192793 439.228934,265.753785 437.920364,270.25505 C437.029884,270.01614 436.150264,269.788091 435.270645,269.554612 C433.84805,265.362843 432.729521,261.073339 431.20376,256.914149 C430.725942,260.61724 429.44995,264.141149 428.689785,267.784512 C428.027355,267.643339 427.370355,267.507595 426.718785,267.377281 C427.560397,262.767421 429.091587,258.325884 430.068942,253.748603 Z" id="Path"></path>
                    <path d="M444.702124,257.082471 C445.484008,257.174777 446.265893,257.272512 447.058636,257.375678 C446.336479,262.066983 445.446,266.725711 444.544661,271.384438 C443.789926,271.243264 443.04062,271.102091 442.302174,270.966347 C443.067769,266.329339 444.191727,261.757488 444.702124,257.082471 Z" id="Path"></path>
                    <path d="M448.855884,257.924083 C452.45581,258.396471 456.088314,258.64624 459.67738,259.210934 C459.525347,259.645314 459.221281,260.514074 459.069248,260.948455 C457.728099,260.991893 456.38695,260.81814 455.056661,260.731264 C454.687438,264.694983 454.111884,268.631554 453.655785,272.578983 C452.879331,272.492107 452.113736,272.405231 451.35357,272.318355 C451.853107,268.343777 452.390653,264.374628 452.808744,260.38919 C451.429587,260.204579 450.061289,260.025397 448.692992,259.846215 C448.731,259.368397 448.817876,258.407331 448.855884,257.924083 Z" id="Path"></path>
                    <path d="M465.009397,259.308669 C467.751421,258.743975 470.998413,259.656174 472.399289,262.246165 C473.534107,264.700413 473.46895,267.637909 472.589331,270.168174 C471.400215,273.149107 467.745992,274.419669 464.786777,273.567198 C458.195058,272.117455 458.390529,260.573802 465.009397,259.308669 M465.020256,261.426273 C463.597661,261.974678 462.837496,263.538446 462.593157,264.961041 C462.294521,266.942901 462.370537,269.266835 463.863719,270.787165 C464.917091,271.932843 466.660041,271.911124 468.082636,271.628777 C469.755,271.107521 470.574893,269.331992 470.726926,267.703066 C471.014702,265.547455 470.813802,262.778281 468.717917,261.567446 C467.545091,261.122207 466.220231,261.165645 465.020256,261.426273 Z" id="Shape"></path>
                    <path d="M475.999215,259.368397 C478.209124,259.243512 480.440752,258.917727 482.650661,259.227223 C485.09405,259.623595 486.39176,262.691405 485.267802,264.814438 C484.746545,265.63976 483.964661,266.253322 483.280512,266.932041 C484.708537,268.843314 486.136562,270.760017 487.586306,272.66043 C486.701256,272.725587 485.827066,272.796174 484.958306,272.87219 C483.704033,271.069512 482.433471,269.283124 481.162909,267.496736 C480.630793,267.518455 479.566562,267.556463 479.034446,267.578182 C479.088744,269.505744 479.18105,271.433306 479.273355,273.360868 C478.52405,273.398876 477.774744,273.442314 477.041727,273.491182 C476.743091,268.778157 476.357579,264.070562 475.999215,259.368397 M478.51319,260.991893 C478.583777,262.609959 478.692372,264.228025 478.795537,265.851521 C480.109537,265.634331 481.423537,265.395421 482.737537,265.123934 C482.960157,264.532091 483.188207,263.940248 483.421686,263.353835 C483.209926,262.729413 483.003595,262.110421 482.802694,261.49143 C481.401818,261.100488 479.952074,260.970174 478.51319,260.991893 Z" id="Shape"></path>
                </g>
                <g id="#2063afff" transform="translate(13.574380, 197.642975)" fill="#2063AF">
                    <path d="M223.146521,20.0412149 C229.189835,13.8241488 234.353529,6.84691736 239.984182,0.266057851 C246.879967,1.10766942 253.770322,1.97642975 260.687826,2.60085124 C267.127512,3.45332231 273.578058,4.15919008 280.044893,4.76189256 C282.634884,4.90849587 285.311752,6.59171901 285.898165,9.23600826 C286.202231,11.3916198 285.827579,13.5689504 285.621248,15.7191322 C283.633959,31.9866694 282.026752,48.2922149 280.034033,64.5597521 C266.041562,78.8019917 250.637355,91.7519504 233.609653,102.220512 C216.533083,112.748802 197.773289,120.822843 178.014421,124.591091 C158.695364,128.375628 138.675868,127.490579 119.438256,123.635455 C80.6155289,115.936066 44.9149091,93.6632231 20.8285289,62.2575372 C12.7110496,51.6912397 5.69038017,40.1910248 0.510396694,27.8980661 C13.9218843,32.7142562 27.3659504,37.4435702 40.7828678,42.2543306 C42.9601983,43.0362149 45.3384298,44.2144711 47.6786529,43.3348512 C49.6007851,42.748438 50.9582231,41.0109174 51.5120579,39.1322231 C55.866719,26.7795372 60.400562,14.4920083 64.6520579,2.1067438 C70.3695868,13.7861405 78.2861653,24.4556033 88.1954628,32.915157 C105.386058,47.939281 128.158438,56.2413719 150.963397,56.1001983 C166.362174,55.9210165 181.402587,50.8279091 194.553446,42.9873471 C205.098025,36.7214132 214.638099,28.8537025 223.146521,20.0412149 M116.022942,73.2962231 C115.811182,74.3876033 115.599421,75.4844132 115.387661,76.5866529 C117.092603,76.9232975 118.797545,77.2653719 120.507917,77.5802975 C119.557711,82.7548512 118.596645,87.929405 117.733314,93.1202479 C119.069033,93.359157 120.410182,93.6034959 121.751331,93.842405 C122.837281,88.6624215 123.532289,83.417281 124.661678,78.248157 C126.37205,78.5576529 128.076992,78.8942975 129.787364,79.1929339 C129.944826,78.074405 130.118579,76.955876 130.292331,75.8373471 C125.525008,75.028314 120.817413,73.9260744 116.022942,73.2962231 M158.885405,76.3531736 C159.064587,77.5097107 159.249198,78.6608182 159.43924,79.8227851 C161.144182,79.6110248 162.849124,79.3503967 164.548636,79.0897686 C165.308802,84.3403388 166.177562,89.5691901 166.878,94.8306198 C168.230008,94.608 169.582017,94.3908099 170.934025,94.1736198 C170.342182,88.9121901 169.397405,83.6941983 168.62638,78.4599174 C170.331322,78.1721405 172.047124,77.9440909 173.768355,77.7703388 C173.627182,76.5866529 173.475149,75.4029669 173.328545,74.2247107 C168.539504,75.0989008 163.707025,75.6907438 158.885405,76.3531736 M132.458802,76.0762562 C131.975554,82.4779339 131.62262,88.8904711 131.18281,95.2921488 C134.918479,95.4061736 138.627,95.8894215 142.362669,95.9328595 C142.411537,94.8414793 142.460405,93.7609587 142.514702,92.680438 C140.179909,92.5175455 137.850545,92.3166446 135.521182,92.1266033 C135.602628,90.4705289 135.760091,88.8198843 135.933843,87.1800992 C138.094884,87.3538512 140.255926,87.5493223 142.422397,87.6959256 C142.471264,86.5882562 142.525562,85.4860165 142.57986,84.3892066 C140.407959,84.1883058 138.241488,83.9982645 136.064157,83.8842397 C136.129314,82.5430909 136.194471,81.2073719 136.248769,79.8716529 C138.627,79.8988017 140.999802,80.0399752 143.372603,80.1648595 C143.44319,79.0354711 143.519207,77.9006529 143.600653,76.7766942 C139.897562,76.4129008 136.178182,76.212 132.458802,76.0762562 M148.378835,77.2273636 C145.311025,78.8508595 145.131843,83.6127521 147.656678,85.8063719 C149.497364,87.3864298 152.005909,87.8533884 153.933471,89.3031322 C155.068289,90.1881818 154.557893,92.045157 153.265612,92.4849669 C150.805934,93.2234132 148.313678,92.1266033 146.016893,91.3175702 C146.092909,92.637 146.152636,93.9618595 146.212364,95.286719 C149.345331,96.1880579 152.901818,96.5464215 155.93162,95.1075372 C159.21119,93.4840413 159.531545,88.2063223 156.507174,86.1701653 C154.709926,84.7367107 152.309975,84.3620579 150.534446,82.9177438 C149.611388,82.255314 150.089207,81.0824876 150.203231,80.175719 C152.41857,79.3775455 154.726215,79.8988017 156.881826,80.6372479 C157.261909,79.5512975 157.652851,78.4707769 158.049223,77.4011157 C155.04114,76.1359835 151.32719,75.4952727 148.378835,77.2273636 Z" id="Shape"></path>
                </g>
            </g>
        </g>
    </g>
</svg>