<?xml version="1.0" encoding="UTF-8"?>
<svg width="373px" height="525px" viewBox="0 0 373 525" version="1.1" xmlns="http://www.w3.org/2000/svg" xmlns:xlink="http://www.w3.org/1999/xlink">
    <!-- Generator: Sketch 60.1 (88133) - https://sketch.com -->
    <title>css</title>
    <desc>Created with Sketch.</desc>
    <g id="Page-1" stroke="none" stroke-width="1" fill="none" fill-rule="evenodd">
        <g id="Artboard" transform="translate(-2627.000000, -1037.000000)" fill-rule="nonzero">
            <g id="logos-tecnologia" transform="translate(1784.000000, 883.000000)">
                <g id="css" transform="translate(843.000000, 154.000000)">
                    <g id="#0c73b8ff" transform="translate(0.000000, 103.000000)" fill="#0C73B8">
                        <path d="M0.4,0.44 C124.45,0.24 248.5,0.42 372.55,0.35 C371.43,17.6 369.36,34.8 368.16,52.06 C366.08,71 364.98,90.07 362.84,109 C361.53,127.38 359.54,145.7 358.17,164.08 C355.97,186.37 354.04,208.71 352.2,231.04 C350.6,246.01 349.4,261.06 348.16,276.07 C347.23,280.29 347.75,284.67 346.85,288.89 C345.76,303.29 344.2,317.65 343.17,332.05 C341.93,343.34 341.06,354.67 340.02,365.99 C339.43,370.72 339.64,375.54 338.54,380.2 C333.99,381.38 329.46,382.67 324.94,383.94 C322.31,384.67 319.68,385.35 317.07,386.07 C307.7,388.76 298.28,391.28 288.91,393.92 C280.29,396.29 271.69,398.72 263.08,401.07 C259.65,401.99 256.25,402.99 252.84,403.91 C231.9,409.7 210.99,415.58 190.03,421.31 C185.1,422.78 180.23,420.51 175.51,419.33 C163.01,415.84 150.5,412.41 138.01,408.93 C116.63,402.98 95.24,397.06 73.87,391.1 C67.88,389.48 61.92,387.78 55.95,386.11 C53.29,385.38 50.62,384.69 47.98,383.95 C46.66,383.59 45.38,383.26 44.09,382.89 C40.91,382 37.75,381.05 34.57,380.19 C33.54,370.01 31.91,359.81 32.54,349.55 C32.31,351.4 32.07,353.25 31.85,355.11 C30.82,339.41 29.56,323.71 27.8,308.09 C27.54,304.72 27.47,301.35 27.17,297.99 C25.74,286.72 25.33,275.3 23.87,264.03 C23.54,260.02 23.65,255.96 22.85,252.01 C22.49,248.34 22.55,244.63 21.86,241.01 C20.86,230 20.2,218.96 18.88,207.99 C18.55,203.99 18.67,199.94 17.84,196 C17.58,188.94 16.46,181.97 16.14,174.92 C14.94,163.62 14.06,152.28 13.14,140.95 C12.39,137.33 12.51,133.62 12.2,129.97 C11.32,126.03 11.44,121.97 11.14,117.98 C9.83,107 9.09,95.96 8.14,84.95 C7.33,77.33 6.59,69.69 6.11,62.02 C4.65,47.36 3.28,32.67 2.23,17.97 C1.18,12.18 1.3,6.25 0.4,0.44 M186.39,31.27 C186.55,45.74 186.55,60.21 186.44,74.68 C147.63,74.72 108.83,74.79 70.02,74.65 C71.07,90.27 73.16,105.81 73.88,121.45 C111.44,121.48 149,121.61 186.55,121.38 L186.55,121.6 C186.5,137.32 186.42,153.03 186.59,168.74 C168.15,168.71 149.72,168.81 131.29,168.69 C131.27,169.92 131.27,171.15 131.28,172.39 C132.76,186.75 133.9,201.14 135.24,215.52 C152.33,215.62 169.42,215.52 186.51,215.57 C186.58,240.23 186.34,264.89 186.62,289.54 C178.57,287.87 170.72,285.3 162.74,283.29 C153.61,280.66 144.29,278.61 135.26,275.63 C133.42,263.39 133.1,250.94 131.53,238.66 C115.88,238.83 100.23,238.71 84.58,238.72 C86.85,263.19 88.8,287.69 91.32,312.13 C123.13,320.87 154.89,329.79 186.68,338.59 C186.23,355.72 186.73,372.87 186.4,390.01 C204.38,385.35 222.2,380.06 240.14,375.24 C263.34,368.65 286.66,362.51 309.81,355.78 C319.48,247.59 329.06,139.39 338.81,31.21 C288.01,31.27 237.2,31.16 186.39,31.27 Z" id="Shape"></path>
                    </g>
                    <g id="#30aaddff" transform="translate(186.000000, 134.000000)" fill="#30AADD">
                        <path d="M0.39,0.27 C51.2,0.16 102.01,0.27 152.81,0.21 C143.06,108.39 133.48,216.59 123.81,324.78 C100.66,331.51 77.34,337.65 54.14,344.24 C36.2,349.06 18.38,354.35 0.4,359.01 C0.73,341.87 0.23,324.72 0.68,307.59 C1.6,307.31 2.52,307.04 3.47,306.78 C34.41,298.21 65.35,289.62 96.3,281.05 C100.76,230.32 105.44,179.61 109.85,128.88 C112.56,100.5 114.75,72.06 117.59,43.69 C78.71,43.7 39.84,43.72 0.96,43.68 L0.44,43.68 C0.55,29.21 0.55,14.74 0.39,0.27 Z" id="Path"></path>
                        <path d="M0.59,137.74 C0.42,122.03 0.5,106.32 0.55,90.6 C22.49,90.41 44.43,90.6 66.37,90.49 C64.66,106.17 63.53,121.91 62.16,137.62 C41.64,137.91 21.11,137.67 0.59,137.74 Z" id="Path"></path>
                        <path d="M0.51,184.57 C19.6,184.56 38.69,184.59 57.79,184.56 C56.1,204.69 54.37,224.82 52.34,244.92 C35.3,249.09 18.51,254.2 1.49,258.42 C1.27,258.45 0.84,258.51 0.62,258.54 C0.34,233.89 0.58,209.23 0.51,184.57 Z" id="Path"></path>
                    </g>
                    <path d="M79.62,0.41 C98.65,0.31 117.67,0.38 136.7,0.37 C136.65,7.12 136.68,13.88 136.69,20.63 C125.7,20.66 114.71,20.63 103.72,20.64 C103.63,30.63 103.7,40.62 103.67,50.61 C114.65,50.67 125.63,50.64 136.61,50.63 C136.73,57.59 136.67,64.55 136.65,71.51 C117.65,71.47 98.65,71.54 79.66,71.47 C79.61,47.78 79.67,24.09 79.62,0.41 Z" id="Path" fill="#131313"></path>
                    <path d="M226.65,0.46 C248.56,0.28 270.47,0.34 292.38,0.43 C292.34,6.82 292.34,13.21 292.37,19.61 C282.24,19.79 272.11,19.56 261.98,19.73 C265.1,24.34 269.3,28.04 273.02,32.14 C279.72,39.76 286.83,46.99 293.54,54.61 C293.46,60.23 293.52,65.85 293.48,71.48 C271.41,71.56 249.35,71.42 227.28,71.55 L227.57,70.5 L226.62,70.6 C226.73,64.26 226.65,57.91 226.67,51.58 C237.22,51.36 247.79,51.64 258.35,51.43 C254.6,46.31 249.81,42.12 245.68,37.33 C242.31,33.39 238.67,29.7 235.1,25.95 C233.33,23.99 231.63,21.97 229.84,20.04 C228.74,18.82 227.66,17.6 226.62,16.36 C226.72,11.06 226.67,5.76 226.65,0.46 Z" id="Path" fill="#131313"></path>
                    <path d="M149.22,0.37 C170.97,0.39 192.72,0.3 214.47,0.42 C214.43,6.82 214.44,13.22 214.46,19.63 C204.91,19.71 195.36,19.69 185.81,19.64 C185.38,19.9 184.52,20.42 184.09,20.68 C185.52,21.98 186.89,23.37 188.26,24.77 C197.21,34.6 206.16,44.45 215.31,54.09 C215.41,59.88 215.34,65.68 215.35,71.47 C193.39,71.55 171.44,71.44 149.49,71.53 C149.21,70.03 148.99,68.52 148.81,67.01 C149.5,62.68 149.53,58.18 148.73,53.87 C148.93,53.27 149.34,52.07 149.54,51.47 C159.79,51.53 170.03,51.5 180.28,51.49 C175.51,44.77 169.08,39.46 163.9,33.07 C158.94,28.13 154.59,22.6 149.46,17.83 C149,12.02 149.35,6.19 149.22,0.37 Z" id="Path" fill="#131313"></path>
                    <path d="M70.02,177.65 C108.83,177.79 147.63,177.72 186.44,177.68 L186.96,177.68 C186.44,193.24 187.2,208.82 186.55,224.38 C149,224.61 111.44,224.48 73.88,224.45 C73.16,208.81 71.07,193.27 70.02,177.65 Z" id="Path" fill="#EDEEF0"></path>
                    <path d="M131.28,275.39 C134.36,274.11 137.64,273.25 141.01,273.41 C156.17,273.67 171.34,273.36 186.51,273.57 C186.82,278.03 186.95,282.5 186.84,286.97 C186.61,297.5 187.1,308.05 186.51,318.57 C169.42,318.52 152.33,318.62 135.24,318.52 C133.9,304.14 132.76,289.75 131.28,275.39 Z" id="Path" fill="#EDEEF0"></path>
                    <path d="M84.58,341.72 C100.23,341.71 115.88,341.83 131.53,341.66 C133.1,353.94 133.42,366.39 135.26,378.63 C144.29,381.61 153.61,383.66 162.74,386.29 C170.72,388.3 178.57,390.87 186.62,392.54 C186.84,392.51 187.27,392.45 187.49,392.42 C186.88,394.89 186.37,397.41 186.33,399.98 C186.24,412.84 186.82,425.72 186.09,438.56 C184.71,438.89 183.37,439.25 182.03,439.6 C184.49,440.02 186.96,440.47 189.47,440.78 C188.52,441.04 187.6,441.31 186.68,441.59 C154.89,432.79 123.13,423.87 91.32,415.13 C88.8,390.69 86.85,366.19 84.58,341.72 Z" id="Path" fill="#EDEEF0"></path>
                </g>
            </g>
        </g>
    </g>
</svg>