<?xml version="1.0" encoding="UTF-8"?>
<svg width="373px" height="525px" viewBox="0 0 373 525" version="1.1" xmlns="http://www.w3.org/2000/svg" xmlns:xlink="http://www.w3.org/1999/xlink">
    <!-- Generator: Sketch 60.1 (88133) - https://sketch.com -->
    <title>html</title>
    <desc>Created with Sketch.</desc>
    <g id="Page-1" stroke="none" stroke-width="1" fill="none" fill-rule="evenodd">
        <g id="Artboard" transform="translate(-1784.000000, -1037.000000)" fill-rule="nonzero">
            <g id="logos-tecnologia" transform="translate(1784.000000, 883.000000)">
                <g id="html" transform="translate(0.000000, 154.000000)">
                    <g id="#e65127ff" transform="translate(0.000000, 103.000000)" fill="#E65127">
                        <path d="M0.42,0.37 C124.48,0.42 248.54,0.28 372.6,0.44 C371.72,6.25 371.79,12.17 370.82,17.96 C368.82,43.66 366.16,69.32 364.15,95.01 C362.73,107.66 362,120.38 360.55,133.03 C360.3,136.57 360.35,140.12 360.51,143.67 C360.29,142.14 360.08,140.6 359.85,139.07 C358.54,158.39 356.72,177.69 354.86,196.95 C354.45,200.63 354.39,204.34 354.12,208.03 C352.57,219.29 352.29,230.71 350.82,241.98 C349.71,256.65 348.4,271.33 346.85,285.97 C346.52,289.96 346.69,294.03 345.83,297.97 C344.66,312.64 343.34,327.32 341.89,341.97 C340.75,354.71 339.93,367.46 338.41,380.16 C337.28,380.44 336.16,380.74 335.04,381.05 C321.73,384.71 308.44,388.42 295.14,392.12 C284.41,395.03 273.72,398.1 263,401.02 C261.67,401.37 260.35,401.73 259.04,402.12 C257.72,402.46 256.41,402.81 255.11,403.2 C244.46,406.2 233.76,409.05 223.12,412.1 C212.66,414.97 202.21,417.85 191.78,420.8 C188.59,421.79 185.15,422.19 181.93,421.15 C171.97,418.36 162.01,415.59 152.03,412.87 C147.37,411.54 142.69,410.25 138.03,408.94 C103.48,399.45 69.02,389.67 34.45,380.27 C33.02,372.25 33.15,364.04 31.89,356 C31.27,344.65 29.85,333.38 29.09,322.05 C27.86,311.05 27.19,299.98 26.05,288.97 C25.31,283.88 25.21,278.71 25.56,273.59 C25.32,275.11 25.09,276.63 24.83,278.17 C23.19,252.72 20.36,227.37 18.32,201.96 C16.06,177.06 13.89,152.18 11.62,127.29 C9.94,106.13 7.46,85.02 6.31,63.83 C6.13,63.71 5.77,63.48 5.59,63.36 C5.63,54.82 4.25,46.36 3.61,37.86 C2.72,25.35 1.25,12.88 0.42,0.37 M186.26,31.32 C186.05,46.78 186.14,62.23 186.29,77.69 C147.31,77.72 108.34,77.66 69.36,77.72 C73.84,124.47 77.77,171.29 82,218.07 C82.23,218.31 82.67,218.8 82.89,219.05 C117.18,219.37 151.48,219.02 185.77,219.21 L185.78,218.84 C186.43,225.2 186.12,231.61 186.15,237.99 C186.16,250.99 186.14,263.98 186.16,276.98 C186.22,282.09 185.43,287.46 187.59,292.28 C184.69,291.92 181.8,291.53 178.93,291.02 C164.13,287.08 149.39,282.91 134.56,279.09 C133.23,266.99 132.53,254.84 131.27,242.74 C130.2,241.38 128.4,241.83 126.92,241.72 C112.7,241.76 98.49,241.83 84.28,241.69 C86.1,266.21 88.67,290.7 90.6,315.22 C121.75,323.96 152.95,332.52 184.11,341.24 C184.8,341.84 185.49,342.45 186.19,343.07 C186.21,358.68 186,374.3 186.25,389.92 C191.96,388.74 197.51,386.93 203.11,385.34 C237.7,375.86 272.23,366.13 306.84,356.7 C307.75,356.42 308.58,355.97 309.3,355.36 C310.44,351.33 310.33,347.09 310.75,342.96 C320,239.07 329.28,135.18 338.58,31.3 C287.81,31.16 237.03,31.11 186.26,31.32 Z" id="Shape"></path>
                        <path d="M120.56,124.7 C142.41,124.7 164.25,124.73 186.1,124.69 C186.19,140.57 186.22,156.45 186.07,172.33 C167.05,172.35 148.02,172.31 129,172.36 C127.64,172.13 125.04,172.79 124.79,170.85 C123.29,155.48 122.43,140.04 120.56,124.7 Z" id="Path"></path>
                    </g>
                    <g id="#f2672eff" transform="translate(178.000000, 134.000000)" fill="#F2672E">
                        <path d="M8.26,0.32 C59.03,0.11 109.81,0.16 160.58,0.3 C151.28,104.18 142,208.07 132.75,311.96 C132.33,316.09 132.44,320.33 131.3,324.36 C130.58,324.97 129.75,325.42 128.84,325.7 C94.23,335.13 59.7,344.86 25.11,354.34 C19.51,355.93 13.96,357.74 8.25,358.92 C8,343.3 8.21,327.68 8.19,312.07 C7.49,311.45 6.8,310.84 6.11,310.24 C6.51,310.32 7.33,310.5 7.73,310.59 C12.58,309.82 17.25,308.24 21.97,306.96 C49.21,299.4 76.46,291.9 103.68,284.3 C108.23,236.68 112.2,188.99 116.59,141.35 C80.42,141.31 44.24,141.36 8.07,141.33 C8.22,125.45 8.19,109.57 8.1,93.69 C45.64,93.74 83.17,93.73 120.7,93.7 C122.26,78.04 123.82,62.38 124.87,46.68 C86.01,46.71 47.15,46.69 8.29,46.69 C8.14,31.23 8.05,15.78 8.26,0.32 Z" id="Path"></path>
                        <path d="M7.78,187.84 C15.53,187.84 23.27,187.8 31.02,187.86 C42.49,188.34 53.98,187.38 65.45,188.15 C63.38,208.14 62.09,228.21 59.73,248.16 C42.38,252.45 25.28,257.74 7.89,261.84 C5.54,261.37 3.23,260.68 0.93,260.02 C3.8,260.53 6.69,260.92 9.59,261.28 C7.43,256.46 8.22,251.09 8.16,245.98 C8.14,232.98 8.16,219.99 8.15,206.99 C8.12,200.61 8.43,194.2 7.78,187.84 Z" id="Path"></path>
                    </g>
                    <path d="M90.6,418.22 C88.67,393.7 86.1,369.21 84.28,344.69 C98.49,344.83 112.7,344.76 126.92,344.72 C128.4,344.83 130.2,344.38 131.27,345.74 C132.53,357.84 133.23,369.99 134.56,382.09 C149.39,385.91 164.13,390.08 178.93,394.02 C181.23,394.68 183.54,395.37 185.89,395.84 C186.19,412.09 186.49,428.35 185.73,444.59 C185.33,444.5 184.51,444.32 184.11,444.24 C152.95,435.52 121.75,426.96 90.6,418.22 Z" id="Path" fill="#EDEEF0"></path>
                    <path d="M82,321.07 C77.77,274.29 73.84,227.47 69.36,180.72 C108.34,180.66 147.31,180.72 186.29,180.69 C185.81,196.35 186.39,212.03 186.1,227.69 C164.25,227.73 142.41,227.7 120.56,227.7 C122.43,243.04 123.29,258.48 124.79,273.85 C125.04,275.79 127.64,275.13 129,275.36 C148.02,275.31 167.05,275.35 186.07,275.33 C186.01,290.83 186.5,306.34 185.78,321.84 L185.77,322.21 C151.48,322.02 117.18,322.37 82.89,322.05 C82.67,321.8 82.23,321.31 82,321.07 Z" id="Path" fill="#EDEEF0"></path>
                    <path d="M281.49,0.38 C289.45,0.36 297.41,0.29 305.38,0.43 C305.36,16.1 305.3,31.78 305.41,47.46 C316.46,47.42 327.5,47.44 338.55,47.45 C338.53,55.41 338.64,63.37 338.49,71.32 C319.51,71.33 300.54,71.32 281.57,71.33 C281.4,47.68 281.56,24.03 281.49,0.38 Z" id="Path" fill="#060709"></path>
                    <path d="M34.65,0.46 C42.69,0.24 50.74,0.39 58.78,0.37 C58.71,7.74 58.82,15.1 58.71,22.47 L59.53,22.58 L59.28,23.61 C66.31,23.49 73.33,23.64 80.36,23.51 C80.36,15.79 80.35,8.08 80.35,0.36 C88.34,0.37 96.34,0.32 104.33,0.39 C104.33,23.76 104.27,47.13 104.36,70.5 L103.47,70.53 L103.66,71.4 C95.93,71.26 88.19,71.33 80.46,71.35 C80.24,63.4 80.4,55.45 80.36,47.5 C73.32,47.37 66.28,47.53 59.25,47.39 L59.57,48.44 L58.66,48.51 C58.69,50.68 58.74,52.86 59.19,54.99 C58.23,60.39 59.07,65.9 58.65,71.35 C50.9,71.32 43.14,71.29 35.39,71.36 L35.71,70.28 L34.63,70.61 C34.7,47.23 34.67,23.84 34.65,0.46 Z" id="Path" fill="#060709"></path>
                    <path d="M114.31,0.36 C136.11,0.36 157.9,0.34 179.7,0.36 C179.65,8.16 179.69,15.96 179.68,23.77 C176.45,23.75 173.2,23.59 170,24.12 C166.56,23.56 163.06,23.78 159.59,23.73 L159.62,24.62 L158.72,24.57 C158.8,33.71 158.74,42.84 158.74,51.98 C158.75,53.48 158.96,54.97 159.38,56.42 L158.54,56.58 C159.81,61.38 158.31,66.42 158.65,71.35 C150.9,71.33 143.15,71.29 135.4,71.37 L135.7,70.28 L134.63,70.6 C134.76,55.14 134.56,39.67 134.74,24.2 L133.64,24.52 L133.48,23.71 C127.1,23.83 120.71,23.72 114.33,23.79 C114.3,15.98 114.33,8.17 114.31,0.36 Z" id="Path" fill="#060709"></path>
                    <path d="M189.65,0.47 C198.12,0.26 206.61,0.34 215.08,0.41 C216.75,3.29 218.45,6.15 220.21,8.98 C222.08,11.98 223.89,15.03 225.75,18.05 C226.79,19.7 227.81,21.37 228.83,23.04 C229.2,23.63 229.56,24.23 229.93,24.83 C231.59,21.79 233.39,18.82 235.33,15.94 C235.41,15.72 235.55,15.27 235.63,15.05 C237.63,12.13 239.36,9.05 241.24,6.06 C242.38,4.16 243.53,2.26 244.69,0.37 C253.02,0.35 261.36,0.34 269.69,0.37 C269.6,24.03 269.82,47.69 269.58,71.34 C261.83,71.33 254.09,71.29 246.35,71.36 L246.63,70.36 L245.59,70.64 C245.58,59.5 245.86,48.33 245.44,37.2 C242.18,42.63 238.67,47.9 235.24,53.23 C233.9,55.24 232.61,57.28 231.26,59.28 C230.94,59.92 230.29,61.2 229.96,61.84 C229.52,61.32 229.07,60.81 228.63,60.31 C226.2,56.49 223.69,52.73 221.26,48.91 C219.25,45.86 217.28,42.78 215.3,39.7 C214.69,38.77 214.1,37.83 213.5,36.89 C213.21,48.12 213.39,59.36 213.41,70.59 L212.44,70.45 L212.62,71.39 C205.2,71.28 197.78,71.31 190.36,71.37 L190.74,70.28 L189.64,70.62 C189.71,47.23 189.68,23.85 189.65,0.47 Z" id="Path" fill="#060709"></path>
                </g>
            </g>
        </g>
    </g>
</svg>