<?xml version="1.0" encoding="UTF-8"?>
<svg width="372px" height="526px" viewBox="0 0 372 526" version="1.1" xmlns="http://www.w3.org/2000/svg" xmlns:xlink="http://www.w3.org/1999/xlink">
    <!-- Generator: Sketch 60.1 (88133) - https://sketch.com -->
    <title>js</title>
    <desc>Created with Sketch.</desc>
    <g id="Page-1" stroke="none" stroke-width="1" fill="none" fill-rule="evenodd">
        <g id="Artboard" transform="translate(-2206.000000, -883.000000)">
            <g id="logos-tecnologia" transform="translate(1784.000000, 883.000000)">
                <g id="js" transform="translate(422.000000, 0.000000)">
                    <g id="#f2bf26ff" transform="translate(185.000000, 133.000000)" fill="#F2BF26" fill-rule="nonzero">
                        <path d="M1.06,1.07 C19.03,0.41 37.03,1.01 55.02,0.8 C85.02,0.81 115.02,0.82 145.02,0.79 C147.6,0.81 150.19,0.98 152.78,1.15 C143.52,105.41 134.13,209.67 124.91,313.94 C124.48,317.67 124.7,321.6 123.25,325.13 C113.4,328.82 102.99,330.89 92.92,333.92 C68.69,340.76 44.38,347.32 20.15,354.16 C13.79,355.83 7.52,357.87 1.06,359.11 C0.46,349.42 0.91,339.72 0.78,330.02 C0.84,323.73 0.34,317.37 1.5,311.15 C28.48,303.43 55.58,296.1 82.61,288.53 C86.93,287.2 91.51,286.57 95.62,284.6 C96.29,283.2 96.3,281.61 96.49,280.11 C100.38,233.89 104.93,187.71 108.7,141.49 C72.7,141.46 36.69,141.53 0.69,141.45 L0.73,139.79 C0.92,115.74 0.6,91.7 0.9,67.66 C19.73,67.7 38.48,69.76 57.29,70.44 C57.91,74.92 58.39,79.41 58.63,83.92 C59.57,95.5 60.96,107.05 61.66,118.65 C77.34,118.75 93.03,118.71 108.72,118.67 C106.19,86.72 102.75,54.84 100.37,22.88 C100.21,21.45 100.01,20.03 99.81,18.61 C66.9,18.82 33.98,18.6 1.07,18.72 C0.59,12.85 0.64,6.95 1.06,1.07 Z" id="Path"></path>
                        <path d="M1,188.45 C19.85,188.48 38.69,188.48 57.53,188.44 C55.95,208.47 53.93,228.46 52.22,248.48 C35.6,253.04 18.96,257.56 2.28,261.95 L1.09,262.27 C0.42,250.86 0.94,239.42 0.78,227.99 C0.94,214.81 0.48,201.62 1,188.45 Z" id="Path"></path>
                    </g>
                    <g id="#edeef0ff" transform="translate(83.000000, 151.000000)" fill="#EDEEF0" fill-rule="nonzero">
                        <path d="M15.72,1.02 C44.82,0.33 73.95,0.91 103.07,0.72 C103.28,16.56 103.37,32.41 103.07,48.24 C96.1,49.16 89.05,48.96 82.09,49.82 L83.72,49.9 C75.34,50.8 66.9,50.64 58.49,50.72 C56.39,73.07 54.27,95.42 52.31,117.79 C52.09,119.62 51.78,121.43 51.5,123.25 L51.63,123.2 C68.64,123.72 85.67,123.28 102.69,123.45 C101.76,139.09 102.63,154.78 102.18,170.44 C68.27,170.44 34.35,170.48 0.44,170.42 C2.06,153.34 3.81,136.25 4.79,119.13 C4.92,119.82 5.05,120.51 5.2,121.21 C7.5,88.79 10.81,56.43 13.68,24.05 C14.31,16.36 15.68,8.74 15.72,1.02 Z" id="Path"></path>
                        <path d="M0.44,193.46 C16.1,193.55 31.77,193.44 47.44,193.53 C48.23,205.85 49.93,218.1 50.57,230.43 C67.71,235.34 85.02,239.65 102.16,244.53 C102.41,254.36 102.25,264.18 102.31,274.01 C102.4,280.39 101.49,286.95 103.5,293.15 L102.81,293.16 C87.73,289.6 72.91,284.99 57.94,280.98 C40.91,276.22 23.84,271.57 6.83,266.77 C4.88,242.32 2.36,217.91 0.44,193.46 Z" id="Path"></path>
                    </g>
                    <g id="#e7a328ff" transform="translate(0.000000, 103.000000)" fill="#E7A328" fill-rule="nonzero">
                        <path d="M0.19,0.38 C124.06,0.31 247.94,0.31 371.81,0.38 C369.87,30.32 366.39,60.13 364.15,90.04 C358.52,150.28 353.44,210.58 347.91,270.84 C344.8,307.25 341.29,343.63 338.28,380.05 C297.87,391.22 257.45,402.4 217.06,413.63 C206.51,416.4 196.06,419.77 185.43,422.1 C134.81,408.27 84.28,394.03 33.68,380.1 C23.95,268.71 13.87,157.33 3.98,45.94 C2.7,30.76 0.99,15.6 0.19,0.38 M186.06,31.07 C185.64,36.95 185.59,42.85 186.07,48.72 C156.95,48.91 127.82,48.33 98.72,49.02 C98.68,56.74 97.31,64.36 96.68,72.05 C93.81,104.43 90.5,136.79 88.2,169.21 C88.05,168.51 87.92,167.82 87.79,167.13 C86.81,184.25 85.06,201.34 83.44,218.42 C117.35,218.48 151.27,218.44 185.18,218.44 L186,218.45 C185.48,231.62 185.94,244.81 185.78,257.99 C185.94,269.42 185.42,280.86 186.09,292.27 L187.28,291.95 C186.75,292.1 185.69,292.39 185.16,292.53 C168.02,287.65 150.71,283.34 133.57,278.43 C132.93,266.1 131.23,253.85 130.44,241.53 C114.77,241.44 99.1,241.55 83.44,241.46 C85.36,265.91 87.88,290.32 89.83,314.77 C106.84,319.57 123.91,324.22 140.94,328.98 C155.91,332.99 170.73,337.6 185.81,341.16 L186.5,341.15 C185.34,347.37 185.84,353.73 185.78,360.02 C185.91,369.72 185.46,379.42 186.06,389.11 C192.52,387.87 198.79,385.83 205.15,384.16 C229.38,377.32 253.69,370.76 277.92,363.92 C287.99,360.89 298.4,358.82 308.25,355.13 C309.7,351.6 309.48,347.67 309.91,343.94 C319.13,239.67 328.52,135.41 337.78,31.15 C335.19,30.98 332.6,30.81 330.02,30.79 C300.02,30.82 270.02,30.81 240.02,30.8 C222.03,31.01 204.03,30.41 186.06,31.07 Z" id="Shape"></path>
                        <path d="M166.72,97.9 C173.11,97.8 179.51,97.64 185.9,97.66 C185.6,121.7 185.92,145.74 185.73,169.79 C172.82,169.9 159.9,169.95 146.99,169.9 C142.87,170.02 138.25,168.47 134.63,171.2 L134.5,171.25 C134.78,169.43 135.09,167.62 135.31,165.79 C137.27,143.42 139.39,121.07 141.49,98.72 C149.9,98.64 158.34,98.8 166.72,97.9 Z" id="Path"></path>
                    </g>
                    <g id="#131313ff" transform="translate(187.000000, 0.000000)" fill="#131313" fill-rule="nonzero">
                        <path d="M0.33,0.31 C22,0.36 43.66,0.28 65.33,0.35 C65.31,6.77 65.3,13.19 65.33,19.61 C55.33,19.7 45.32,19.57 35.31,19.68 C36.38,21.23 37.55,22.7 38.79,24.13 C40.24,25.69 41.63,27.31 43.07,28.9 C50.93,37.15 58.57,45.63 66.31,54 C66.74,59.81 66.46,65.66 66.39,71.49 C65.56,71.3 63.89,70.92 63.06,70.73 C59.44,71.63 55.69,71.14 52.01,71.24 C47.34,71.12 42.63,71.59 38,70.87 C35.19,71.33 32.35,71.28 29.53,71.3 L29.41,70.72 C28.7,70.72 27.3,70.72 26.59,70.72 L26.47,71.29 C19.94,71.16 13.42,71.31 6.91,71.2 C4.71,70.87 2.5,70.74 0.29,70.7 C0.36,64.27 0.28,57.84 0.34,51.41 C10.7,51.46 21.05,51.45 31.4,51.42 C27.84,46.12 22.8,42.06 18.81,37.11 C12.55,30.63 6.76,23.71 0.37,17.37 C0.27,11.68 0.33,6 0.33,0.31 Z" id="Path"></path>
                    </g>
                    <path d="M151.55,0.38 C159.58,0.27 167.61,0.34 175.65,0.34 C175.62,23.86 175.67,47.39 175.63,70.91 C175.12,70.82 174.1,70.65 173.6,70.56 L173.5,71.28 C172.5,71.28 170.5,71.28 169.49,71.28 L169.44,70.72 C168.72,70.72 167.27,70.72 166.54,70.72 L166.41,71.54 C165.57,71.34 163.91,70.94 163.08,70.74 C160.92,71.22 158.7,71.3 156.51,71.36 L156.47,70.74 C154.81,70.75 153.16,70.75 151.51,70.74 L151.41,71.54 C150.58,71.34 148.91,70.94 148.08,70.74 C145.43,71.44 142.64,71.45 139.98,70.8 C138.49,71 137.01,71.23 135.54,71.5 L135.45,70.72 C134.73,70.72 133.28,70.72 132.56,70.72 L132.5,71.36 C130.32,71.29 128.15,71.19 126,70.86 C123.51,71.47 120.95,71.28 118.48,70.74 C118.54,62.94 118.47,55.14 118.52,47.34 C129.52,47.37 140.52,47.35 151.53,47.35 C151.59,31.7 151.56,16.04 151.55,0.38 Z" id="Path" fill="#060709" fill-rule="nonzero"></path>
                    <g id="#060709ff" transform="translate(118.000000, 0.000000)"></g>
                    <g id="#e69610ff" transform="translate(134.000000, 272.000000)" fill="#E69610" fill-rule="nonzero">
                        <path d="M0.63,2.2 C4.25,-0.53 8.87,1.02 12.99,0.9 C25.9,0.95 38.82,0.9 51.73,0.79 L51.69,2.45 C34.67,2.28 17.64,2.72 0.63,2.2 Z" id="Path"></path>
                    </g>
                </g>
            </g>
        </g>
    </g>
</svg>